<svg xmlns="http://www.w3.org/2000/svg" width="18.248" height="18.624" viewBox="0 0 18.248 18.624">
  <path id="google" d="M9.312,7.978H18.1a8.815,8.815,0,0,1,.145,1.552,9.821,9.821,0,0,1-1.1,4.7A7.968,7.968,0,0,1,14,17.46a9.3,9.3,0,0,1-4.686,1.164,9.154,9.154,0,0,1-3.625-.734A9.127,9.127,0,0,1,.734,12.937a9.326,9.326,0,0,1,0-7.251A9.127,9.127,0,0,1,5.686.734,9.154,9.154,0,0,1,9.312,0a8.824,8.824,0,0,1,6.244,2.437L13.022,4.874a5.126,5.126,0,0,0-3.71-1.443,5.566,5.566,0,0,0-2.892.788A5.89,5.89,0,0,0,3.541,9.312,5.89,5.89,0,0,0,6.42,14.4a5.562,5.562,0,0,0,2.892.788,6.176,6.176,0,0,0,1.94-.291,4.906,4.906,0,0,0,1.455-.727,5.241,5.241,0,0,0,.994-.994,4.654,4.654,0,0,0,.624-1.055,4.425,4.425,0,0,0,.273-.946H9.312Z" fill="#fff"/>
</svg>
