<svg id="Component_2_1" data-name="Component 2 – 1" xmlns="http://www.w3.org/2000/svg" width="24.789" height="24.789" viewBox="0 0 24.789 24.789">
  <g id="Group_380" data-name="Group 380" transform="translate(6.761)">
    <path id="Path_1381" data-name="Path 1381" d="M567.24-260.227v5.409h-2.253v-3.93a10.08,10.08,0,0,0-2.254-.515V-241.3h-2.253v-17.966a10.051,10.051,0,0,0-2.254.515v3.93h-2.253v-5.409a12.3,12.3,0,0,1,2.253-.884,12.287,12.287,0,0,1,2.254-.416q.557-.051,1.127-.051t1.127.051a12.285,12.285,0,0,1,2.254.416A12.3,12.3,0,0,1,567.24-260.227Z" transform="translate(-555.972 261.578)" fill="#060608"/>
  </g>
  <g id="Group_381" data-name="Group 381" transform="translate(6.761 11.267)">
    <path id="Path_1382" data-name="Path 1382" d="M567.24-205.672v12.17a12.291,12.291,0,0,1-2.253.884,12.284,12.284,0,0,1-2.254.416q-.557.051-1.127.051t-1.127-.051a12.286,12.286,0,0,1-2.254-.416,12.291,12.291,0,0,1-2.253-.884v-12.17h2.253v10.691a10.04,10.04,0,0,0,2.254.515,10.2,10.2,0,0,0,1.127.062,10.2,10.2,0,0,0,1.127-.062,10.068,10.068,0,0,0,2.254-.515v-10.691Z" transform="translate(-555.972 205.672)" fill="#060608"/>
  </g>
  <g id="Group_382" data-name="Group 382" transform="translate(20.282 2.833)">
    <path id="Path_1383" data-name="Path 1383" d="M627.568-237.958q0,.57-.051,1.127a12.325,12.325,0,0,1-.415,2.253,12.286,12.286,0,0,1-.885,2.254,12.291,12.291,0,0,1-.9,1.494q-.275.391-.58.759a12.381,12.381,0,0,1-1.674,1.674v-3.186c.193-.238.375-.485.545-.74a10.083,10.083,0,0,0,1.131-2.254,10.057,10.057,0,0,0,.515-2.253,10.188,10.188,0,0,0,.062-1.127,10.2,10.2,0,0,0-.062-1.127,10.014,10.014,0,0,0-.515-2.253,10.084,10.084,0,0,0-1.13-2.254q-.256-.383-.545-.74v-3.186a12.382,12.382,0,0,1,1.674,1.674q.3.368.58.759a12.291,12.291,0,0,1,.9,1.494,12.275,12.275,0,0,1,.885,2.254,12.278,12.278,0,0,1,.416,2.253Q627.568-238.529,627.568-237.958Z" transform="translate(-623.061 247.519)" fill="#060608"/>
  </g>
  <g id="Group_383" data-name="Group 383" transform="translate(0 2.833)">
    <path id="Path_1384" data-name="Path 1384" d="M526.933-247.519v3.186q-.289.357-.545.74a10.084,10.084,0,0,0-1.131,2.254,10.038,10.038,0,0,0-.515,2.253,10.259,10.259,0,0,0-.062,1.127,10.248,10.248,0,0,0,.062,1.127,10.071,10.071,0,0,0,.515,2.253,10.088,10.088,0,0,0,1.131,2.254q.255.383.545.74v3.186a12.406,12.406,0,0,1-1.674-1.674q-.3-.368-.58-.759a12.268,12.268,0,0,1-.9-1.494,12.3,12.3,0,0,1-.885-2.254,12.341,12.341,0,0,1-.416-2.253q-.051-.557-.051-1.127t.051-1.127a12.294,12.294,0,0,1,.416-2.253,12.283,12.283,0,0,1,.885-2.254,12.268,12.268,0,0,1,.9-1.494q.275-.391.58-.759A12.406,12.406,0,0,1,526.933-247.519Z" transform="translate(-522.426 247.519)" fill="#060608"/>
  </g>
</svg>
