<svg xmlns="http://www.w3.org/2000/svg" width="189.033" height="246.502" viewBox="0 0 189.033 246.502">
  <g id="Group_393" data-name="Group 393" transform="translate(558.232 -546.622)">
    <circle id="Ellipse_33" data-name="Ellipse 33" cx="16.118" cy="16.118" r="16.118" transform="matrix(0.503, -0.864, 0.864, 0.503, -413.271, 776.916)" fill="#060608"/>
    <path id="Path_1265" data-name="Path 1265" d="M621.539,598.512a30.261,30.261,0,0,0,4.364,1.849c.835.277,3.054,1.231,3.929.833,1.417-.645-1.813-2.022-2.2-2.241-1.29-.733-4.016-2.18-6.9-3.711-2.354-1.25-4.789-2.542-6.456-3.454a20.868,20.868,0,0,1-3.651-2.723c.1.157.206.323.309.5C612.4,592.138,617.451,596.4,621.539,598.512Z" transform="translate(-1059.73 97.175)" fill="#060608"/>
    <path id="Path_1266" data-name="Path 1266" d="M663,617.727c-.619.592-1.274,1.113-1.946,1.644a16.5,16.5,0,0,1-2.182,1.443,19.1,19.1,0,0,1-4.583,1.911,33.221,33.221,0,0,1-7.615,1.375,4.5,4.5,0,0,1-1.178-.128,44.431,44.431,0,0,1-4.41-1.68c.253.107.607.877.774,1.108.3.414.6.83.933,1.221a26.021,26.021,0,0,0,1.96,1.733c.4.388.8.773,1.2,1.166a17.921,17.921,0,0,1,2.5,2.775l.079.122a9.941,9.941,0,0,0,5.906,4.737,9.4,9.4,0,0,0,5.947-.552,9.761,9.761,0,0,0,2.576-1.637,3.582,3.582,0,0,0,1.1-2.757c-.042-1.456-.791-2.289-.874-4.536-.068-1.852-.076-3.709-.126-5.562-.023-.867.38-2.984,1.518-3.058-.652.169-.993.11-1.522.621Z" transform="translate(-1081.907 76.8)" fill="#060608"/>
    <path id="Path_1267" data-name="Path 1267" d="M646.333,660.521a11.376,11.376,0,0,1-2.159.331,19.542,19.542,0,0,1-3.632.037,4.125,4.125,0,0,1-1.441-.6c-.5-.275-1.052-.476-1.538-.753-1.073-.612-1.547-1.9-2.441-2.7-1.184-1.052-2.1-2.433-3.234-3.562-.6-.6-1.714-2.067-2.656-1.95.982.361.953,1.331.81,2.194a12.961,12.961,0,0,0-.174,3.092,11.88,11.88,0,0,0,1.041,4.7c.491,1.638-.5,2.768-1.148,4.137a5.241,5.241,0,0,0-.56,2.3,13.706,13.706,0,0,0,1.066,4.907c.586,1.439,1.458,2.666,2.176,4.042a11.412,11.412,0,0,1-2-3.018c-.425-.836-1.008-1.586-1.384-2.449a10.06,10.06,0,0,1-.482-2.934,5.89,5.89,0,0,1,1.761-4.842c-.989-.177-3.107-.444-4.17.274-1.415.957-2.913,2.5-2.871,3.579a4.107,4.107,0,0,1-.166,1.582s-.916,1.165-.749,1.872,1.5.79,1.5.79,1,1.581,1.373,2.122a11.86,11.86,0,0,0-.874,1.914,1.062,1.062,0,0,0,.957.541c.416-.042.832-.666.832-.666a48.553,48.553,0,0,1,3.121,4.161,15.345,15.345,0,0,1,2.331,5.867c.25,2.247-.25,6.367,1.331,9.113s5.326,6.533,6.825,6.991,3.62-1.04,4.328-2.5a6.881,6.881,0,0,0,0-4.827c-.866-2.993,0-4.273,2.171-6.2.884-.783,1.63-1.691,2.576-2.391,1.021-.756,2.655-2.615.51-1.543-1.545.772-4.654,6.559-6.657,2.62.43-2.38,5.1-4.065,7.037-5.2q7.037-4.112,13.716-8.614a65.927,65.927,0,0,0,6.508-4.39c1.126-.967,5.284-4.852,4.648-6.3-1.711.049-2.812,2.952-3.853,4.142-3.324,3.8-8.009,6.684-12.249,9.429-2.609,1.689-5.273,3.9-8.208,5.121-2.863,1.191-7.82,4.454-8.445-.541-.208-1.665.167-4.036-.624-5.035a3.363,3.363,0,0,0-.266-1.562c.11.19-.047.835-.073,1.056a3.7,3.7,0,0,1-.712,1.767,4.236,4.236,0,0,0,.188-2.216,10.4,10.4,0,0,1-.224-1.714,1.821,1.821,0,0,1,.63-1.45,24.053,24.053,0,0,0,5.576-4.911c1.926-2.481,3.355-5.258,3.237-7.511.028.535-2.019,1.338-2.409,1.454C646.892,660.375,646.612,660.453,646.333,660.521Z" transform="translate(-1068.272 51.856)" fill="#060608"/>
    <path id="Path_1268" data-name="Path 1268" d="M598.03,593.9l0,0v0C598.038,593.916,598.039,593.915,598.03,593.9Z" transform="translate(-1050.559 93.654)" fill="#060608"/>
    <path id="Path_1269" data-name="Path 1269" d="M748.8,310.838a3.18,3.18,0,0,0-1.015-2.737c-1.059-1.059-4.149-4.281-6.224-6.223s-3.443-2.649-6.091-4.988-7.548-6.8-11.476-8.916a62.523,62.523,0,0,1-8.033-4.988c-2.119-1.545-5.606-2.56-7.106-3.84-1.322-1.128-2.992-2.974-4.759-3.352-.665-.143-1.2.808-1.549,1.208-.512.589-1.066,1.166-1.59,1.758A7.913,7.913,0,0,0,699.8,280.5c-.411.81-1.064,1.449-1.442,2.251a35.7,35.7,0,0,1-1.985,3.268,31.049,31.049,0,0,0,8.407,4.962,23.022,23.022,0,0,1,5.143,2.919c1.807,1.182,3.336,2.85,6.256,4.379a85.958,85.958,0,0,0,9.987,4.039c3.729,1.387,8.692,1.171,8.512,6.4a40.436,40.436,0,0,0,0,5.65c.219.927,1.013,1.1,2.072,2.03,1.158,1.013,1.881,1.537,1.162,3.07A29.539,29.539,0,0,1,735.348,323a24.948,24.948,0,0,1-1.924,2.143,14.988,14.988,0,0,0-1.256,1.9c1.674-1.905,3.3-3.737,4.785-5.8a11.85,11.85,0,0,1,2.093-2.857c.748-.556,1.611-.854,2.338-1.5,0,0,.706.177.839.441s0,.441-.441.485c-2.363.236-1.006,2.445-1.249,4.02-.31,2.01-1.948,3.819-2.852,5.588-2.022,3.958-5.434,7.737-8.3,11.1a25.666,25.666,0,0,1-6.092,5.133c-1.358.83-6.708,2.189-4.953,4.029a20.9,20.9,0,0,0,6.266-3.9,59.842,59.842,0,0,0,9.426-10.375,39.932,39.932,0,0,0,5.141-7.652c.773-1.736,1.406-4.128,2.994-5.337.779-.593,3.4-.751,3.635-1.8,0,0,1.324-.309,1.545-.706,0,0,1.015-.309,1.192-.883A53.09,53.09,0,0,0,748.8,310.838Z" transform="translate(-1122.153 325.244)" fill="#060608"/>
    <path id="Path_1270" data-name="Path 1270" d="M618.136,414.123c-.546-.008-.9.711-1.285,1.035a2.98,2.98,0,0,1-1.951.7,5.865,5.865,0,0,1-1.93-.384,41.991,41.991,0,0,0-5.346-1.462c-.709-.156-1.379-.3-2.057-.48-.366-.1-.766-.2-1.188-.317,1.042.978,3.738,3.373,5.7,3.933.307.088.591.168.858.242a18.261,18.261,0,0,1,3.443,1.212,8.928,8.928,0,0,1,1.575,1.009c.474.385,1.356.867,1.982.581,1.273-.582.726-2.78,2.033-3.308.455-.184,1.1-.005,1.432-.456-.127.174-.846-.031-1-.118a4.42,4.42,0,0,1-1.047-1.116,4.022,4.022,0,0,0-.842-.963A.77.77,0,0,0,618.136,414.123Z" transform="translate(-1055.183 225.19)" fill="#060608"/>
    <path id="Path_1271" data-name="Path 1271" d="M694.668,318.111c.345.177,1.015-.422,1.348-.656-.529-.38-1.084-.812-1.455-1.108.184.147-.124,1.1-.1,1.333S694.56,318.056,694.668,318.111Z" transform="translate(-1120.761 295.712)" fill="#060608"/>
    <g id="Group_372" data-name="Group 372" transform="translate(-520.338 567.426)">
      <path id="Path_1272" data-name="Path 1272" d="M450.431,273.883c-.128-.141-1-.773-.882-1-.018.034-.038.069-.059.1a6.42,6.42,0,0,1-2.056,1.678,5.035,5.035,0,0,0,1.667-4.376,54.669,54.669,0,0,0-1.063-5.865c-.545-2.263-1.8-4.395-1.271-6.723-.168.348-.466,1.435-.826.7-.212-.434.3-1.164.481-1.525a9.331,9.331,0,0,1,2.336-2.968c.836-.715,1.662-1.448,2.521-2.134.687-.548,1.7-.747,2.339-1.281.5-.424.568-1.2.88-1.824a23.5,23.5,0,0,0,1.507-2.708,10.939,10.939,0,0,0,.562-2.6,10.332,10.332,0,0,1-2.043,4.513c-1.554,1.922-3.888,3.117-5.4,5.082a41.838,41.838,0,0,0-3.019,4c-.589.994-1.572,3.129-1.207,4.324a9.261,9.261,0,0,1-.032-2.324,20.456,20.456,0,0,1,.124-2.438,14.872,14.872,0,0,0-.094-4.1c-.136-.851-.378-3.217-1.006-3.814-1.112-1.058-2.963,1.36-3.89,1.922a14.061,14.061,0,0,1-4.532,1.873,12.5,12.5,0,0,0-4.907,1.83,28.613,28.613,0,0,1-5.783,2.744,14.715,14.715,0,0,1-5.379,1.085,33.014,33.014,0,0,1-4.444-.468,9.13,9.13,0,0,0,2.411.029c3.19,0,9.7-.711,8.643-5.314a9.526,9.526,0,0,0-1.4-3.033,8.814,8.814,0,0,0-3.723-2.927c-1.95-1-3.856-2.248-5.876-3.088a16.28,16.28,0,0,1-5.374-3.387,16.84,16.84,0,0,0-2.211-2.17,23.938,23.938,0,0,1-2.876-2.094c-.83-.746-1.78-1.358-2.559-2.152a19.549,19.549,0,0,0,2.768,1.765,126.941,126.941,0,0,0,12.7,8.084c.98.5,1.961,1.012,2.912,1.568.7.41,1.487.7,2.167,1.124a4.792,4.792,0,0,1,1.11,1.14,10.126,10.126,0,0,0,.87,1.092,6.351,6.351,0,0,1,1.476,2.028,9.138,9.138,0,0,1,.636,2.405c.038.308.1,2.627-.257,2.714a20.236,20.236,0,0,0,3.645-1.726,13.545,13.545,0,0,0,1.689-.891c.3-.2.8-.77,1.212-.7-.843-.151-1.2-1.183-1.965-1.47.711.129,1.382.682,2.13.831,2.422.484,4.424-.481,6.3-1.864-1.374.547-1.942-.036-3.015-.734a36.885,36.885,0,0,0-3.141-1.945c-1.041-.538-1.924-1.414-2.967-1.844-.777-.321-1.561-.534-2.347-.775-.885-.271-1.659-.644-2.526-.945a11.368,11.368,0,0,1-1.721-.977,4.625,4.625,0,0,0-1.036-.311c-.711-.2-1.47-.6-2.174-.863a24.121,24.121,0,0,1-2.854-1.3c-1.85-.982-3.591-2.152-5.357-3.274a15.018,15.018,0,0,0,2.152.894c1.5.659,2.9,1.57,4.429,2.17,1.812.712,3.665,1.314,5.49,1.992.806.3,1.641.443,2.434.783.841.361,1.627.843,2.48,1.179a11.632,11.632,0,0,1,2.913,1.46c1.228.956,2.56,1.857,3.839,2.777a5.412,5.412,0,0,0,2.723,1.218,3.821,3.821,0,0,0,2.5-.544,8.214,8.214,0,0,0,1.721-1.48,6.367,6.367,0,0,0,1.618-2.362,1.475,1.475,0,0,1-1.189,1.022c-.588-.026-.687-1.138-.778-1.58a27.193,27.193,0,0,0-2.485-7.7c-.462-.837-.888-1.706-1.389-2.52a17.977,17.977,0,0,0-.849-1.758c-.206-.255-.635-.3-.84-.509-.426-.443-1.407-2.992-.733-3.393-.476.283-.457,1.225-.616,1.7a5.725,5.725,0,0,1-2.647,2.735,10.677,10.677,0,0,1-5.393,1.349,13.448,13.448,0,0,1-4.2-.63c-.868-.271-1.807-.246-2.665-.443-1-.229-2.055-.442-3.043-.719-1.556-.436-3-1.4-4.592-1.789a9.758,9.758,0,0,1-4.732-2.7c-.947-1.054-2.345-1.573-3.263-2.663a25.9,25.9,0,0,0-4.113-3.244,37.947,37.947,0,0,0-3.945-2.818c3.671,1.631,6.915,4.161,10.164,6.495,1.132.813,2.11,1.515,2.84,2.009a29.412,29.412,0,0,0,8.045,3.451,63.993,63.993,0,0,0,8.674,2.209,9.109,9.109,0,0,0,4.715-.437,7.4,7.4,0,0,0,3.074-2.123,3.143,3.143,0,0,0,.657-2.571c-.067-.367-.445-.849-.824-.545-.666.533-.705,1.517-1.264,2.117a2.635,2.635,0,0,1-2.482,1.122c-.99-.192-1.663-1.029-2.585-1.38-1.442-.549-2.86-.916-4.335-1.337-2.251-.643-3.89-2.377-5.635-3.832-2.035-1.7-4.543-2.424-6.68-3.95-2.075-1.482-4.422-2.5-6.5-3.976a5.6,5.6,0,0,0-1.583-1.049,12.555,12.555,0,0,1,3.457,1.327,46.059,46.059,0,0,1,5.133,2.984,28.353,28.353,0,0,0,6.4,3.021,65.644,65.644,0,0,0,6.5,1.832c1.75.473,3.5,1.229,5.207.184,2.338-1.427,3.165-5.369,2.07-7.777a2.763,2.763,0,0,1-.2-1.923c.133-.46.352-1.3.877-1.449a10.191,10.191,0,0,0-2.9,1.762l.018.013a8.646,8.646,0,0,1-4.71,2.879,13.01,13.01,0,0,1-5.538.06,16.274,16.274,0,0,1-2.386-.443,39.141,39.141,0,0,0,5.19.023,17.124,17.124,0,0,0,4.5-1.163,3.944,3.944,0,0,0,.916-.427,3.375,3.375,0,0,1-1.719.246,24.871,24.871,0,0,1-4.4-.667c-1.082-.193-2.182-.2-3.273-.3a32.134,32.134,0,0,1-5.817-1.041,29.533,29.533,0,0,1-5.638-2.456,24.39,24.39,0,0,1-5.724-3.617,15.318,15.318,0,0,1-1.238-1.55,14.819,14.819,0,0,1,2.853,1.722c1.114.727,2.256,1.413,3.417,2.062a31.553,31.553,0,0,0,6.571,2.995,38.279,38.279,0,0,0,6.076,1.189c.927.126,1.855.255,2.779.4,1,.16,1.97.439,2.978.555a9.919,9.919,0,0,0,2.748-.073A4.742,4.742,0,0,0,430.6,213.8a3.222,3.222,0,0,0,.421-3.09c-.176-.717.012-1.448.911-1.428-.808-.018-1.449.648-2.015,1.132a3.409,3.409,0,0,1-2.063.85,7.124,7.124,0,0,1-4.748-1.383,47.56,47.56,0,0,0-5.124-3.366c-1.777-.95-3.552-1.889-5.378-2.737a31.721,31.721,0,0,0-4.088-1.657,12.2,12.2,0,0,0-2.545-.937,21.07,21.07,0,0,1,5.053,1.346c1.471.492,2.91,1.067,4.327,1.7,2.062.921,4.171,2.121,6.21,3.282,1.1.624,2.131,1.213,3.155,1.759,1.5.8,3.609,1.321,5.15.333,1.1-.7.977-4.077,2.058-4.12a8.535,8.535,0,0,1-3.347-.9c2.066.027,4.884-1.091,5.067-3.463.056-.719-.664-1.937-.524-2.5a2.429,2.429,0,0,0-.184-1.5,3.6,3.6,0,0,0-.777-1.364c-1.8-1.556-4.569-2.106-6.771-2.856a6.847,6.847,0,0,0-2.869-.77,18.554,18.554,0,0,1,4.692.574c3.059.815,5.663,2.84,8.792,3.434a4.519,4.519,0,0,0,1.813.153,7.941,7.941,0,0,1,1.214-2.025c-.36.577-1.085,1.727-.323,2.283.454.332.865.756,1.3,1.121a4.039,4.039,0,0,1,1.432,2.2,3.079,3.079,0,0,1,0,.943,2.947,2.947,0,0,0,.458-1.59,6.023,6.023,0,0,1,.249-2.839,47.37,47.37,0,0,1,2.98-4.44c.9-1.26,1.742-2.451,2.213-3.184.129-.2.257-.4.384-.6,1.113-1.761,2.164-3.424,3.5-3.138a3.532,3.532,0,0,1,1.122.468,1.716,1.716,0,0,0-.868-1.022,22.156,22.156,0,0,1-3.579-2.635,33.437,33.437,0,0,0-3.189-2.375,30.168,30.168,0,0,0-2.783-1.709c-.971-.493-1.788-1.375-2.772-1.784a4.106,4.106,0,0,1,.015,2.895c-.8-3.6-4.147-4.726-7.312-6.169-1.679-.765-3.394-1.47-5.131-2.092-1.892-.677-1.848-.663-1.84-2.663a10.808,10.808,0,0,0-.573-3.021c-.284.917.774,5.233-.472,5.409-1.468.207-.547-2.669-.673-3.435-.181-1.1-.74-1.908-.714-3.122a16.288,16.288,0,0,0,.26-2.253c-.144-.833-.9-1.775-1.148-2.622a25.5,25.5,0,0,0-.912-2.636c-.563-1.356-1.581-2.622-1.981-3.986,1.131,2.743,2.6,5.264,3.061,8.235a60.019,60.019,0,0,1,.654,6.365c.044.919.17,1.9.168,2.8,0,.66-.642,1.581-.613,2.053-.12-1.945.042-3.273-1.887-4.357a19.149,19.149,0,0,0-2.347-.686c-.655-.263-1.278-.663-1.925-.954a4.933,4.933,0,0,0-3.514.391c-.424.26-2.968,2.564-2.97,1.108-.091.158-.385.53-.381.707a7,7,0,0,1-.748,3.669,7.75,7.75,0,0,0-.557,1.282,5.988,5.988,0,0,1-1.8,2.969c-.979.653-2.429,1.78-4.436,3.341l-1.42,1.1c-1.216.943-2.147,1.794-3.047,2.618a30.044,30.044,0,0,1-3.395,2.8c-.924.634-1.623,1.5-2.5,2.177a13.779,13.779,0,0,0-1.841,2A31.546,31.546,0,0,1,391,187.11c.833-.828,1.648-1.816,2.536-2.571.9-.77,1.884-1.464,2.773-2.278.913-.836,1.858-1.7,3.1-2.664l1.419-1.1c2.021-1.572,3.482-2.707,4.488-3.378a5.463,5.463,0,0,0,1.464-2.547,8.216,8.216,0,0,1,.641-1.448,3.86,3.86,0,0,0,.48-1.345c-.5.9-1.019,1.834-1.478,2.653-.517.923-.963,1.721-1.187,2.14-.95,1.775-3.977,2.632-4.319,2.724-.63.169-1.276.229-1.9.407a11.745,11.745,0,0,0-1.925.817q-1.213.6-2.4,1.244l-.229.125-.22-.141c-.029-.019-2.884-1.856-4.042-2.491-1.272-.7-2.956-2.833-4.095-5.193a7.17,7.17,0,0,1-.619-4.494,5.874,5.874,0,0,0-.672,1.692,7.76,7.76,0,0,1-2.434,2.153c-1.264.562-1.873.983-3,.936a5.159,5.159,0,0,0-2.953.8,2.147,2.147,0,0,1-2.389-.205c1.535,1.586,4.33,2.23,6.325,3.043.947.386,1.9.768,2.854,1.129.814.308,1.536.728,2.324,1.095a5.329,5.329,0,0,0,2.239.7c-2.637-.008-4.9-.953-7.3-1.923-1.138-.46-2.261-.964-3.386-1.455-.926-.4-1.865-1.165-2.922-1.084a8.186,8.186,0,0,0-1.688.534c-.734.228-1.428.261-2.153.539-.579.222-1.152.436-1.711.707a13.844,13.844,0,0,0-4.219,3.056q-1.267,1.388-2.559,2.753-.495.523-.993,1.043c-.3.313-.657.452-.964.726a8.689,8.689,0,0,0,.966.644,2.1,2.1,0,0,0-2.259.273,8.736,8.736,0,0,1,3.483,2.2c.263.252.528.5.8.746.249.222.7.476.84.776-.085-.184-.683-.429-.863-.543-.331-.21-.661-.421-1-.622-.647-.388-1.371-.638-2.013-1.017a5.22,5.22,0,0,0-3.314-.843,6.723,6.723,0,0,0-3.37.7c2.063-1.17,4.614.762,5.992,2.181a17.414,17.414,0,0,0,1.792,1.5c.634.5,1.169,1.124,1.821,1.6.689.507,1.411,1,2.1,1.507a4.379,4.379,0,0,1,1.552,1.7,9.389,9.389,0,0,0-2.884-1.854,18.841,18.841,0,0,1-2.86-2.057,25.3,25.3,0,0,1-2.147-1.784,8.823,8.823,0,0,0-2.76-1.974c-1.056-.455-1.714.051-2.736.344a27.085,27.085,0,0,0-2.659.787,2.129,2.129,0,0,0-1.238,1.687,13.4,13.4,0,0,0-.38,2.248,7.281,7.281,0,0,0,.863,2.65,4.986,4.986,0,0,0,2.968,2.644,12.02,12.02,0,0,0,2.027.5,10.883,10.883,0,0,0,1.218.126,4.957,4.957,0,0,1,1.227.013l-.471-.183c-2.239-.857-5.675-2.236-5.4-5.206a4.206,4.206,0,0,0,1.36,1.954c1.21,1.247,2.917,1.8,4.356,2.716,1.039.663,2.208.98,3.283,1.563.819.445,1.725.49,2.553.891.883.428,1.691.964,2.61,1.311a2.359,2.359,0,0,1,1.492,3.385,6.9,6.9,0,0,0,.643-1.069,3.345,3.345,0,0,0,.118-1.4,4.876,4.876,0,0,0-1.619-2.721,12.771,12.771,0,0,0-2.715-2.224,30.492,30.492,0,0,0-4.678-2.181c-.909-.364-1.884-.69-2.755-1.124a5.783,5.783,0,0,1-1.595-1.694,4.755,4.755,0,0,0,1.827,1.09,16.7,16.7,0,0,0,2.075.8,21.718,21.718,0,0,1,5.588,2.359,13.792,13.792,0,0,1,4.469,4.455c1.186,1.9,1.506,3.829,2.2,5.851.29.845,1.121,1.414,1.53,2.211.78,1.523.914,3.178,1.782,4.7a30.669,30.669,0,0,0,3.426,5.152c1.862,2.128,5.111,7.531,8.915,14.824a40.58,40.58,0,0,0,4.306,6.78c.539.668,1.111,1.307,1.693,1.937.868.939,1.467,2.165,2.524,2.928a25.507,25.507,0,0,1,2.223,1.514,17.3,17.3,0,0,0,2.2,1.483,16.371,16.371,0,0,0,3.765,2.048q.66.211,1.318.424c2.858.923,5.558,1.8,7.091,1.8a36.3,36.3,0,0,0,3.624-.305c-1.256.106-2.419.8-3.685.864a9.782,9.782,0,0,1-3.444-.326q-1.936-.572-3.856-1.192a46.055,46.055,0,0,0-8.087-2.128,18.058,18.058,0,0,0-4.13.086c-2.1.261-4.985.809-6.222,2.747-1.547,2.422,2.014,5.793-.738,7.808a11.293,11.293,0,0,0,2.5-2.409,15.369,15.369,0,0,1,5.74-5.189,8.066,8.066,0,0,1,2.485-.721,7.138,7.138,0,0,1,3.18.486c.716.245,1.49.467,2.2.766a21.185,21.185,0,0,1,1.969,1.152c.272.149.553.488.845.552a14.375,14.375,0,0,1-1.779-.754c-.635-.246-1.277-.476-1.929-.677a13.325,13.325,0,0,0-3.883-.677c-3.658,0-6.643,3.733-8.247,5.739a2.342,2.342,0,0,0-.71,1.657c-.015-.176,1.067-.84,1.217-.946a15.186,15.186,0,0,1,1.691-1.036,10.955,10.955,0,0,1,2.731-1,11.138,11.138,0,0,1,2.542-.276,12.029,12.029,0,0,1,2.3.319,19.514,19.514,0,0,1,2.018.685c-.834-.007-1.653-.4-2.518-.4a14.623,14.623,0,0,0-3.317.216,13.175,13.175,0,0,0-3.469,1.3,11,11,0,0,0-3.651,2.847c-.329.47-.188.892.188,1.409a4.13,4.13,0,0,1,.094,2.537,3.773,3.773,0,0,0,.209,1.738s-1.477,4.839-1.289,7.094a6.141,6.141,0,0,0,.478,1.971c-.181-1.721-.23-4.491,1.009-6.111,1.966-2.571,4.846-3.576,10.272-3.585h.035a21.174,21.174,0,0,1,6.425,1.052c.535.162,1.034.358,1.517.547a10.407,10.407,0,0,0,2.715.784,10.811,10.811,0,0,1,6.105,2.992,3.349,3.349,0,0,1,1.2,2.731.946.946,0,0,0,.105.612c.442.627.567,2.01-1.113,5.056a3.053,3.053,0,0,0,.917-.957,12.763,12.763,0,0,0,1.153-2.2,3.484,3.484,0,0,0,.334-1.9c-.144-.574-.042-1.175-.215-1.746a11.411,11.411,0,0,1-.539-1.528,1.082,1.082,0,0,0,.406.4,3.1,3.1,0,0,1-.027-1.216,2.517,2.517,0,0,0-.012-1.528,4.7,4.7,0,0,0-.943-1.269,3.646,3.646,0,0,0-.989-.969,7.883,7.883,0,0,0-2.688-.649,37.076,37.076,0,0,1-4.212-1.237c-.947-.281-1.984-.443-2.954-.629-1.027-.2-2.062-.357-3.082-.59a11.243,11.243,0,0,0-2.473-.1c-1.46,0-2.96-.1-4.41.047a9.447,9.447,0,0,0-2.533.7,11.109,11.109,0,0,1,2.214-.944c.737-.273,1.473-.4,2.208-.673a2.41,2.41,0,0,1,1.891-.2,11.141,11.141,0,0,0,3.279.459,8.235,8.235,0,0,1,1.909.338c.432.155.844.379,1.292.5.525.138,1.073.04,1.595.191.392.114.748.3,1.144.4,1.079.263,2.206.5,3.271.836.962.308,3.271.142,3.948,1.013a6.269,6.269,0,0,0-3.338-1.825,7.41,7.41,0,0,1,2.67.471c1.917.738,3.525,2.445,5.014,3.8a26.88,26.88,0,0,0,4.724,3.72c1.661.909,4.093,2.2,6.446,3.449,1.282.68,2.493,1.448,3.77,2.135,1.315.708,2.641,1.455,3.9,2.244a26.806,26.806,0,0,0,2.74,1.44,3.555,3.555,0,0,0,2.709.366,15.9,15.9,0,0,0,2.8-1.454c.71-.456,1.434-.983,2.106-1.5a10.128,10.128,0,0,0,1.789-1.906,4.2,4.2,0,0,0,.925-2.439A2.584,2.584,0,0,0,450.431,273.883Z" transform="translate(-348.751 -152.262)" fill="#060608"/>
    </g>
    <path id="Path_1273" data-name="Path 1273" d="M605.166,870.458c-1.123-1.96-.835-2.94-1.987-4.5-.812-1.1-1.058-2.6-2-3.558-.88-.894-2.069-1.468-2.994-2.265a5.28,5.28,0,0,0-1.276-.908,6.343,6.343,0,0,0-2.079-.29,7.71,7.71,0,0,1-2.48-.5,22.539,22.539,0,0,0-4.064-1.127,4.7,4.7,0,0,0-4.326,1.095,5.4,5.4,0,0,0-1.931,4.208c.288,3.17,1.1,5.764,2.709,7.378s2.536,2.306,3.055,2.306a1.622,1.622,0,0,1,1.441.519c.288.461.519,1.1,1.21,1.037a3.783,3.783,0,0,1,2.882.865,10.642,10.642,0,0,1,2.594,2.479c.807,1.153,1.729.807,1.729.807s.865.749,1.614.519a3.16,3.16,0,0,0,1.268-.807,5.306,5.306,0,0,0,3.343-1.844s.4.864.922.749.346-2.018.346-2.018A4.7,4.7,0,0,0,605.166,870.458Z" transform="translate(-1038.898 -98.035)" fill="#060608"/>
    <path id="Path_1274" data-name="Path 1274" d="M389.194,326.116a2.107,2.107,0,0,0-1.182.472c.749-.471,1.371.655,1.568,1.195.025.069.6.117.677.128a6.88,6.88,0,0,0,1.077.1,1.272,1.272,0,0,0,.818-.177c.4-.379-.362-.578-.618-.7q-.563-.268-1.127-.534a4.086,4.086,0,0,0-1.14-.474Z" transform="translate(-897.67 288.601)" fill="#060608"/>
    <path id="Path_1275" data-name="Path 1275" d="M257.489,214.556a6.189,6.189,0,0,0-.679-.068c-.532-.027-1.061,0-1.593,0a8.213,8.213,0,0,1-5.922-1.921,8.959,8.959,0,0,1-2.459-5.078,5,5,0,0,1,.138-2.557c.422-1,1.095-1.887,1.062-3.033a2.794,2.794,0,0,1-1.264,1.88c-3.2,2.028-7.5,2.07-10.237,4.931-3.043,3.184-13.624,8.9-15.45,9.036-.73.056-1.693.529-2.235-.125a2.95,2.95,0,0,1-.4-1.533,13.569,13.569,0,0,1,.113-3.166c.133-.9.217-1.815.315-2.715.095-.873.683-1.714.737-2.537.082-1.252-.67-.728-.795.2-.1.727,0,1.509-.073,2.229a35.153,35.153,0,0,0-.266,3.641,23.071,23.071,0,0,0-.067,3.56c.1.622-.159,2.023-1.12,1.422-.711-.445-.628-1.685-.716-2.408a14.932,14.932,0,0,1,.344-4.539c.7-3.512,1.1-7.082,1.985-10.543.842-3.276,1.079-6.507,2.1-9.78a56.982,56.982,0,0,0,2.027-7.779,19.068,19.068,0,0,1,2.176-6.561c.41-.7,1.688-1.534,1.917-2.172.8-2.236-1.441-.745-2,.374a42.655,42.655,0,0,0-3.131,10.448,98.347,98.347,0,0,1-3.588,14.371,42.449,42.449,0,0,0-1.79,12.52,21.868,21.868,0,0,1-.348,5.244c-.514,1.843-1.555,2.067-3.284,2.516a11.875,11.875,0,0,0-3.088,1.17.8.8,0,0,0,0,1.451,34.7,34.7,0,0,0,3.464.281,5.233,5.233,0,0,1,2.06,1.217s-.187,1.4-.187,2.2-.609,1.124-.656,1.779a1.513,1.513,0,0,0,.749,1.5,1.491,1.491,0,0,0,1.592-.281s.8,1.639,1.4,1.966a1.516,1.516,0,0,0,1.873-.8,13.572,13.572,0,0,0-.562-3.137,5.186,5.186,0,0,0,1.639-.749s.234,4.775.749,5.477,1.5.421,2.06.047.281-1.686.281-1.686a2.1,2.1,0,0,0,1.5-1.358c.422-1.17-.047-6.367-.047-6.367a3.2,3.2,0,0,0,2.294-1.451s1.311-.843,5.384-.655a51.051,51.051,0,0,0,12.5-.749c3.324-.8,4.728-1.639,5.758-2.481a10.071,10.071,0,0,1,1.934-1.185c.461-.228.933-.435,1.411-.625.684-.272,1.405-.52,2.094-.813.372-.158.748-.266,1.109-.4-.106.039-.558-.169-.692-.194Z" transform="translate(-767.671 399.496)" fill="#060608"/>
    <path id="Path_1276" data-name="Path 1276" d="M467.458,431.649a24.976,24.976,0,0,1,3.852.807l-.63-.391c-1.373-.851-2.757-1.693-4.066-2.642a9.981,9.981,0,0,1-1.523-1.238c-1.562-1.7-2.792-3.637-4.338-5.365a9.808,9.808,0,0,1-1.843-2.538,17.274,17.274,0,0,0-1.416-2.883c-.469-.7-1.064-1.306-1.551-1.993a20.59,20.59,0,0,1-1.069-2.174,39.129,39.129,0,0,0-2.955-4.693,22.682,22.682,0,0,0-1.471-2.219,18.414,18.414,0,0,0-1.219-1.409,5.087,5.087,0,0,0-2.064-.866c.61-.035,1.544,2.611,1.713,3.052.5,1.3.986,2.609,1.476,3.915.987,2.631,1.691,4.51,2.49,6.437a21.109,21.109,0,0,0,2.813,5.6,10.875,10.875,0,0,0,1.5,1.426,8.108,8.108,0,0,1,1.215,1.15,14.222,14.222,0,0,1,.762,1.307,5.783,5.783,0,0,0,.887,1.031,5.348,5.348,0,0,0,1.427,1.1c.533.253,1.137.377,1.655.628a6.519,6.519,0,0,1-2.631-.5,7.052,7.052,0,0,1-2.576-2.72,5.772,5.772,0,0,0-1.3-1.315,17.5,17.5,0,0,0-2.029-1.857,5.1,5.1,0,0,0-2.606-.432c1.765.219,1.908,1.636,2.436,2.954a6.549,6.549,0,0,0,1.489,2.127,5.082,5.082,0,0,0,1.962,1.451,5.052,5.052,0,0,1-2.142-.673c.921.45,0,2.4-.275,2.921-.423.8-.376,1.5.047,1.832.61.474.884.966,1.661.6.671-.318,1.277-.7,1.976-.968a15.325,15.325,0,0,1,2.279-.833A19.182,19.182,0,0,1,467.458,431.649Z" transform="translate(-940.734 231.869)" fill="#060608"/>
    <path id="Path_1277" data-name="Path 1277" d="M470.4,100.225c0,1.02,1.255,1.961,1.569,3.452a9.835,9.835,0,0,0,1.961,3.61,1.914,1.914,0,0,0,2.2.863s.331,1.954.577,2.939c-.471.164-1.092,0-1.475.345a2.215,2.215,0,0,0-.435,1.657,6.618,6.618,0,0,0,.664,2.909c1.05,2.176,2.617,4.2,3.727,4.8,1.008.553,3.177,1.934,3.876,2.382.565-.3,2.045-1.09,3.242-1.626a9.019,9.019,0,0,1-2.226-1.183c-.477-.324-.973-.645-1.5-.984-1.079-.7-2.2-1.419-3.274-2.258a5.3,5.3,0,0,1-1.985-3.235,10.565,10.565,0,0,1-.27-1.608c.006.218.281.513.36.718a6.927,6.927,0,0,0,1.97,3.106c.427.316.857.633,1.288.942.778.558,1.582,1.078,2.386,1.6.53.342,1.03.666,1.515,1a5.229,5.229,0,0,0,4.683,1.113c1.029-.276,3.141-1.11,3.773-2.29.228-.426.676-1.227,1.2-2.154.925-1.653,1.885-3.287,2.857-4.913a19.517,19.517,0,0,0,2.511-9.536q.1-3.393.319-6.781c.094-1.477-.237-3.664,1.171-4.585-1.327.46-1.745-.252-2.038-1.424-.079-.315-.863-2.9-.863-3.217S495.9,79.9,495.9,79.9c-1.052-.855-1.966-1.423-2.356-2.762.267.917-1.4,1.453-1.969,1.435-.938-.028-1.694-.714-2.658-.714-1.553-.644-3.027-1.414-4.562-2.084,2.941,1.285-3.3,2.109-3.756,2.241l-3.688,1.726L473.3,82.57,470.712,89l-.314,3.923,1.1,5.806A1.82,1.82,0,0,0,470.4,100.225Z" transform="translate(-957.647 470.844)" fill="#060608"/>
    <path id="Path_1278" data-name="Path 1278" d="M534.469,743.43c.295-.007.446-.263.607-.466a12.206,12.206,0,0,1,3.3-2.858,10.579,10.579,0,0,1,4.244-1.69c-.867.436-1.778.839-2.61,1.341a21.16,21.16,0,0,0-3.246,2.449,2.634,2.634,0,0,0-1.068,2.236c.157,1.013,1.273,1.392.338,2.321,1.133-.5.5.346.092.83-.5.587-1.2.869-1.723,1.395a8.994,8.994,0,0,1,3.295-1.711,5.7,5.7,0,0,1,3.781.293,8.73,8.73,0,0,0,1.093.46,6.368,6.368,0,0,1,1.278.26c.254.119.4.348.688.453a4.539,4.539,0,0,0,1.792.033,6.634,6.634,0,0,1,3.11.238,5.956,5.956,0,0,1,1.833,1.323c.575.584,1,1.324,1.821,1.6-.542-.448-.652-1.61-.927-2.237a4.491,4.491,0,0,0-1.283-1.907,25.033,25.033,0,0,0-1.923-1.613c-.59-.336-1.246-.54-1.829-.885.681-.039,1.362.375,2.1.3-.466.045-1.018-2.181-1.111-2.475-.922-2.94-1.5-3.862-1.614-4.784a3.065,3.065,0,0,0-.461-1.672,10.273,10.273,0,0,1-.692-2.305,2.732,2.732,0,0,0-.747-1.514c-.66-.508-1.544-.193-2.294-.176a16.116,16.116,0,0,1,1.911-.626c-.335.123-1.738-6.436-1.81-7.022-.346-2.824-1.153-5.187-7.609-15.39,0,0,.334-.636.079-.892a2.145,2.145,0,0,1-.73-1.24c0-.367-.431-.58-.758-.576-.111,0-.222.007-.333.011-.918.036-1.834.106-2.748.2-.973.1-1.944.023-2.9.154a25.42,25.42,0,0,0-3.357.835c-1.084.3-2.074.143-3.092.686-.987.528-2.068.827-3.079,1.3-.573.267-1.506.636-1.534,1.381a4.925,4.925,0,0,0,.115.949,4.825,4.825,0,0,0,.415,1.646,3.805,3.805,0,0,0,.491.63,32.777,32.777,0,0,0,3.189,7.6c2.6,4.842,7.169,11.762,9.339,14.927s2.985,4.025,3.03,4.477.678.5.678.5q.162.31.32.622c.126.25.168.581.515.586Z" transform="translate(-991.101 11.369)" fill="#060608"/>
    <path id="Path_1279" data-name="Path 1279" d="M596.132,580.353a8.048,8.048,0,0,1,.323,1.555,2.274,2.274,0,0,0,.168.7,5.107,5.107,0,0,0,.55.947,16.655,16.655,0,0,0,2.848,3,26.338,26.338,0,0,0,3.96,3.007,34.976,34.976,0,0,0,8.068,3.21,8.5,8.5,0,0,0,3.639-.2c.7-.137,1.4-.2,2.107-.325a13.881,13.881,0,0,1,2.132-.44,16.906,16.906,0,0,1-5.386-.546,32.014,32.014,0,0,1-4.914-1.947c-.377-.194-.748-.4-1.115-.612a37.326,37.326,0,0,1-6.426-4.748c-.863-.789-1.659-1.638-2.44-2.5a28.475,28.475,0,0,1-2.119-3.479,13.984,13.984,0,0,0-2.71-2.613,3.774,3.774,0,0,1,1.2,1.692C596.4,578.138,595.837,579.291,596.132,580.353Z" transform="translate(-1048.222 107.153)" fill="#060608"/>
    <path id="Path_1280" data-name="Path 1280" d="M554.906,581.913a9.863,9.863,0,0,0-5.571-2.73,11.25,11.25,0,0,1-2.938-.84c-.467-.183-.95-.372-1.452-.524-.693-.21-1.422-.413-2.2-.582a13.8,13.8,0,0,1,3.383,1.731,24.447,24.447,0,0,1,2.736,2.078c1.349,1.05,2.83,1.706,3.7,3.275a9.692,9.692,0,0,0,1.6,2.261,4.142,4.142,0,0,1,1.2,2.219,11.47,11.47,0,0,0,.84-2.616,1.5,1.5,0,0,0-.086-1.034,1.749,1.749,0,0,1-.266-1.132A2.536,2.536,0,0,0,554.906,581.913Z" transform="translate(-1010.312 105.785)" fill="#060608"/>
    <path id="Path_1281" data-name="Path 1281" d="M509.037,610.786c.638-.073,1.5.085,2.027-.367.6-.513.275-1.426.183-2.093a31.112,31.112,0,0,0-.8-4.662,5.64,5.64,0,0,1,.095-4.636,45.66,45.66,0,0,0,2.176-5.346c.47-2.016,3.275-4.124,2.358-6.312a16.022,16.022,0,0,0-5.132-6.266c-3.042-2.344-8.184-5.083-11.023-5.447-5.725.043-7.885,1.326-9.348,3.239-1.879,2.457-1.162,6.2-.613,8.952a19.837,19.837,0,0,0,1.624,4.8,21.176,21.176,0,0,1,2.3,7.141,12.578,12.578,0,0,0,1.128,4.04,19.522,19.522,0,0,1,1.55,6.061,13.42,13.42,0,0,0,.215,1.665,4.895,4.895,0,0,1,.145.728,2.688,2.688,0,0,1-.2.624c.464.467-.6.744-.865,1.109.276-.087.566-.4.86-.359.261.04.348.24.2.4-.2.21-.735.274-.994.433s-.419.387-.651.545a2.882,2.882,0,0,0-.664.487c-.172.191-.391.349-.569.523a3.56,3.56,0,0,0-.6.766c1.133-.791,2.2-1.709,3.384-2.427,2.8-1.694,6.379-2.5,9.592-3.073Q507.217,610.995,509.037,610.786Z" transform="translate(-970.718 106.936)" fill="#060608"/>
    <g id="Group_370" data-name="Group 370" transform="translate(-558.232 546.622)">
      <path id="Path_1282" data-name="Path 1282" d="M621.539,598.512a30.261,30.261,0,0,0,4.364,1.849c.835.277,3.054,1.231,3.929.833,1.417-.645-1.813-2.022-2.2-2.241-1.29-.733-4.016-2.18-6.9-3.711-2.354-1.25-4.789-2.542-6.456-3.454a20.868,20.868,0,0,1-3.651-2.723c.1.157.206.323.309.5C612.4,592.138,617.451,596.4,621.539,598.512Z" transform="translate(-501.499 -449.446)" fill="#060608"/>
      <path id="Path_1283" data-name="Path 1283" d="M726.424,617.117c.087-.018.179-.038.279-.064A.915.915,0,0,0,726.424,617.117Z" transform="translate(-585.799 -469.821)" fill="#060608"/>
      <path id="Path_1284" data-name="Path 1284" d="M664.3,617.288a2,2,0,0,0-1.243.557L663,617.9c-.619.592-1.274,1.113-1.946,1.644a16.477,16.477,0,0,1-2.182,1.443c-.348.2-.714.389-1.091.577a2.017,2.017,0,0,1,1.3.338,13.331,13.331,0,0,1,1.815,3.09c.821,1.922,1.54,4.938-.646,6.084a18.5,18.5,0,0,0-3.061,1.513,4.863,4.863,0,0,1-2.987,1.026c-2.626.085-3.564-1.582-4.737-3.551-1.077-1.81-3.829-3.385-2.9-5.792a4.292,4.292,0,0,1-1.061-.125,44.4,44.4,0,0,1-4.41-1.68c.253.108.607.877.774,1.108.3.414.6.83.933,1.221a26.022,26.022,0,0,0,1.96,1.733c.4.388.8.773,1.2,1.166a17.911,17.911,0,0,1,2.5,2.775l.079.122a9.941,9.941,0,0,0,5.906,4.737,9.4,9.4,0,0,0,5.947-.552,9.763,9.763,0,0,0,2.576-1.638,3.581,3.581,0,0,0,1.1-2.757c-.042-1.456-.791-2.289-.874-4.536-.068-1.852-.076-3.709-.126-5.562C663.04,619.49,663.375,617.656,664.3,617.288Z" transform="translate(-523.676 -469.992)" fill="#060608"/>
      <path id="Path_1285" data-name="Path 1285" d="M670.754,686.526c-3.324,3.8-8.009,6.684-12.249,9.429-2.609,1.689-5.273,3.9-8.208,5.121-2.863,1.191-7.82,4.454-8.445-.541-.208-1.665.167-4.036-.624-5.035a3.363,3.363,0,0,0-.266-1.562c.11.19-.047.835-.073,1.056a3.7,3.7,0,0,1-.712,1.767,4.236,4.236,0,0,0,.188-2.216,10.4,10.4,0,0,1-.224-1.714,1.821,1.821,0,0,1,.63-1.45,24.057,24.057,0,0,0,5.576-4.911c1.926-2.481,3.355-5.258,3.237-7.511.028.535-2.019,1.338-2.409,1.454-.283.084-.563.162-.842.23a11.38,11.38,0,0,1-2.159.331,19.558,19.558,0,0,1-3.632.037,4.13,4.13,0,0,1-1.441-.6c-.041-.023-.084-.042-.126-.064a6.8,6.8,0,0,0,1.3,1.555c.776.571,1.781.656,2.337,1.578a4.277,4.277,0,0,1-1.026,5.467,7.8,7.8,0,0,1-4.993,2.072c-1.021.05-2.384-.091-1.7,1.163.571,1.043,1.741,1.346,2.257,2.58,1.019,2.433.031,3.83-2.1,4.882a3.728,3.728,0,0,1,4.2,1.657c.995,1.689.475,3.036.783,4.8.511,2.924,2.517,7.544-2.089,7.941-5.452.47-5.994-5.1-5.59-9.1.433-4.289-3.517-8.428-6.191-11.389-.981-1.086-2.888-3.324-1.177-4.736a11.4,11.4,0,0,1,1.087-.374c.314-.167.432-.46.763-.581a1.594,1.594,0,0,1,1.713.291,5.917,5.917,0,0,1,1.785-4.579c-.989-.177-3.107-.444-4.17.275-1.415.957-2.913,2.5-2.871,3.579a4.106,4.106,0,0,1-.166,1.581s-.916,1.165-.749,1.873,1.5.79,1.5.79,1,1.581,1.373,2.122a11.858,11.858,0,0,0-.874,1.914,1.062,1.062,0,0,0,.957.541c.416-.042.832-.666.832-.666a48.547,48.547,0,0,1,3.121,4.161,15.344,15.344,0,0,1,2.331,5.867c.25,2.247-.25,6.367,1.331,9.113s5.326,6.533,6.825,6.991,3.62-1.04,4.328-2.5a6.881,6.881,0,0,0,0-4.827c-.866-2.993,0-4.273,2.171-6.2.884-.783,1.63-1.691,2.576-2.391,1.021-.756,2.655-2.615.51-1.543-1.545.772-4.654,6.559-6.657,2.619.43-2.38,5.1-4.065,7.037-5.2q7.037-4.112,13.716-8.614a65.948,65.948,0,0,0,6.508-4.39c1.126-.967,5.284-4.852,4.648-6.3C672.9,682.432,671.8,685.335,670.754,686.526Z" transform="translate(-510.04 -514.888)" fill="#060608"/>
      <path id="Path_1286" data-name="Path 1286" d="M598.03,593.9l0,0v0C598.038,593.916,598.039,593.915,598.03,593.9Z" transform="translate(-492.327 -452.967)" fill="#060608"/>
      <path id="Path_1287" data-name="Path 1287" d="M748.8,317.538a3.18,3.18,0,0,0-1.015-2.737c-.236-.236-.572-.579-.975-.99a7.063,7.063,0,0,1,.576,3.759c-.55,2.791-3.922,2.482-5.476.766-.946-1.044-.7-.809-1.932-.474-.806.22-1.738.423-2.346-.419-.619-.858-.14-1.874.254-2.736a6.711,6.711,0,0,0,.486-5c-1-3.484-6.622-3.339-9.565-3.693a34.152,34.152,0,0,1-8.886-1.832,19.472,19.472,0,0,1-8.019-6.77c-1.505-2.09-2.356-5.042-5.18-5.341-2.4-.254-3.965-.135-5.119-2.607a6.424,6.424,0,0,1-.216-4.482c-.145.158-.289.317-.43.477A7.911,7.911,0,0,0,699.8,287.2c-.411.81-1.064,1.449-1.442,2.251a35.7,35.7,0,0,1-1.985,3.268,31.049,31.049,0,0,0,8.407,4.962,23.018,23.018,0,0,1,5.143,2.919c1.807,1.182,3.336,2.85,6.256,4.379a85.963,85.963,0,0,0,9.987,4.039c3.729,1.387,8.692,1.171,8.512,6.4a40.435,40.435,0,0,0,0,5.65c.219.927,1.013,1.1,2.072,2.03,1.158,1.013,1.881,1.537,1.162,3.07a29.535,29.535,0,0,1-2.564,3.532,24.962,24.962,0,0,1-1.924,2.143,14.983,14.983,0,0,0-1.256,1.9c1.674-1.905,3.3-3.737,4.785-5.8a11.849,11.849,0,0,1,2.093-2.857c.748-.556,1.611-.854,2.338-1.5,0,0,.706.177.839.441s0,.441-.441.486c-2.363.236-1.006,2.445-1.249,4.02-.31,2.01-1.948,3.819-2.852,5.588-2.022,3.958-5.434,7.737-8.3,11.1a25.663,25.663,0,0,1-6.092,5.133c-1.358.831-6.708,2.189-4.953,4.029a20.9,20.9,0,0,0,6.266-3.9,59.848,59.848,0,0,0,9.426-10.375,39.929,39.929,0,0,0,5.141-7.652c.773-1.736,1.406-4.128,2.994-5.337.779-.593,3.4-.751,3.635-1.805,0,0,1.324-.309,1.545-.706,0,0,1.015-.309,1.192-.883A53.089,53.089,0,0,0,748.8,317.538Z" transform="translate(-563.921 -228.077)" fill="#060608"/>
      <path id="Path_1288" data-name="Path 1288" d="M619.35,415.2a4.022,4.022,0,0,0-.842-.963.77.77,0,0,0-.373-.112c-.546-.008-.9.711-1.285,1.035a2.98,2.98,0,0,1-1.951.7,5.865,5.865,0,0,1-1.93-.384,41.991,41.991,0,0,0-5.346-1.462c-.709-.156-1.379-.3-2.057-.48-.366-.1-.766-.2-1.188-.317,1.042.978,3.738,3.373,5.7,3.933l.858.242a18.261,18.261,0,0,1,3.443,1.212,8.928,8.928,0,0,1,1.575,1.009c.474.385,1.356.867,1.982.581,1.273-.582.726-2.78,2.033-3.308.455-.184,1.1-.005,1.432-.456-.127.174-.846-.031-1-.118A4.42,4.42,0,0,1,619.35,415.2Z" transform="translate(-496.952 -321.432)" fill="#060608"/>
      <path id="Path_1289" data-name="Path 1289" d="M694.46,317.68c.024.244.1.376.209.431.345.177,1.015-.422,1.348-.656-.529-.38-1.083-.812-1.455-1.108C694.746,316.494,694.437,317.448,694.46,317.68Z" transform="translate(-562.529 -250.91)" fill="#060608"/>
      <path id="Path_1290" data-name="Path 1290" d="M688.563,613.314c-.044,0-.088.013-.133.016C688.47,613.327,688.515,613.322,688.563,613.314Z" transform="translate(-558.14 -467.099)" fill="#060608"/>
      <path id="Path_1291" data-name="Path 1291" d="M689.626,612.732c-.268.063-.518.128-.709.158A3.313,3.313,0,0,0,689.626,612.732Z" transform="translate(-558.495 -466.676)" fill="#060608"/>
      <path id="Path_1292" data-name="Path 1292" d="M491.267,250.187c-.124,0-.247,0-.369-.009A1.411,1.411,0,0,0,491.267,250.187Z" transform="translate(-414.339 -202.74)" fill="#060608"/>
      <path id="Path_1293" data-name="Path 1293" d="M525.372,431.416c.056.045.107.095.161.142A1.963,1.963,0,0,0,525.372,431.416Z" transform="translate(-439.435 -334.679)" fill="#060608"/>
      <path id="Path_1294" data-name="Path 1294" d="M480.905,547.091c-.085.069-.17.138-.256.209A3.268,3.268,0,0,0,480.905,547.091Z" transform="translate(-406.877 -418.889)" fill="#060608"/>
      <path id="Path_1295" data-name="Path 1295" d="M606.43,153.762c-.223-.5-.443-.993-.652-1.5A7.834,7.834,0,0,0,606.43,153.762Z" transform="translate(-497.97 -131.458)" fill="#060608"/>
      <path id="Path_1296" data-name="Path 1296" d="M653.756,361.923c.023,0,.045-.007.069-.009C653.8,361.916,653.779,361.92,653.756,361.923Z" transform="translate(-532.898 -284.082)" fill="#060608"/>
      <path id="Path_1297" data-name="Path 1297" d="M619.95,298.774q.311,0,.621.011A2.576,2.576,0,0,0,619.95,298.774Z" transform="translate(-508.287 -238.107)" fill="#060608"/>
      <path id="Path_1298" data-name="Path 1298" d="M592.865,539.552c-.235-.034-.471-.068-.708-.1A2.557,2.557,0,0,0,592.865,539.552Z" transform="translate(-488.054 -413.33)" fill="#060608"/>
      <path id="Path_1299" data-name="Path 1299" d="M654.009,361.9a1.347,1.347,0,0,1,.15,0A1.454,1.454,0,0,0,654.009,361.9Z" transform="translate(-533.082 -284.069)" fill="#060608"/>
      <path id="Path_1300" data-name="Path 1300" d="M702.042,552.147a1.724,1.724,0,0,0,.053.236A1.877,1.877,0,0,1,702.042,552.147Z" transform="translate(-568.049 -422.57)" fill="#060608"/>
      <path id="Path_1301" data-name="Path 1301" d="M700.483,492.274a.654.654,0,0,0,.11-.3C700.561,492.075,700.523,492.175,700.483,492.274Z" transform="translate(-566.914 -378.762)" fill="#060608"/>
      <path id="Path_1302" data-name="Path 1302" d="M486.242,345.073c1.966-2.571,4.846-3.576,10.272-3.585h.035a21.174,21.174,0,0,1,6.425,1.052c.535.162,1.034.358,1.517.547a10.412,10.412,0,0,0,2.715.784,10.81,10.81,0,0,1,6.105,2.992,3.349,3.349,0,0,1,1.2,2.731.947.947,0,0,0,.105.612c.442.627.567,2.01-1.113,5.056a3.053,3.053,0,0,0,.917-.957,12.773,12.773,0,0,0,1.153-2.2,3.484,3.484,0,0,0,.334-1.9c-.144-.574-.042-1.175-.215-1.745a11.4,11.4,0,0,1-.539-1.528,1.083,1.083,0,0,0,.406.4,3.1,3.1,0,0,1-.027-1.216,2.518,2.518,0,0,0-.012-1.528,4.7,4.7,0,0,0-.943-1.269,3.645,3.645,0,0,0-.989-.969,7.88,7.88,0,0,0-2.688-.649,37.093,37.093,0,0,1-4.212-1.237c-.947-.281-1.984-.443-2.954-.629-1.027-.2-2.062-.357-3.082-.59a11.242,11.242,0,0,0-2.473-.1c-1.46,0-2.96-.1-4.41.047a9.445,9.445,0,0,0-2.533.7,11.1,11.1,0,0,1,2.214-.944c.737-.273,1.473-.4,2.208-.673a2.41,2.41,0,0,1,1.891-.2,11.142,11.142,0,0,0,3.279.459,8.239,8.239,0,0,1,1.909.338c.432.155.844.379,1.292.5.525.138,1.073.04,1.595.191.392.114.748.3,1.144.4,1.079.263,2.206.5,3.271.836.962.308,3.271.142,3.948,1.013a6.269,6.269,0,0,0-3.338-1.825,7.409,7.409,0,0,1,2.67.471c1.917.738,3.525,2.445,5.014,3.8a26.877,26.877,0,0,0,4.724,3.72c1.661.909,4.093,2.2,6.445,3.449,1.282.68,2.493,1.448,3.77,2.135,1.315.708,2.641,1.455,3.9,2.244a26.825,26.825,0,0,0,2.74,1.44,3.555,3.555,0,0,0,2.709.366,15.9,15.9,0,0,0,2.8-1.454c.71-.456,1.434-.983,2.106-1.5a10.132,10.132,0,0,0,1.789-1.907,4.2,4.2,0,0,0,.925-2.439,2.583,2.583,0,0,0-.812-1.483c-.128-.141-1-.773-.882-1-.019.035-.038.069-.059.1a6.42,6.42,0,0,1-2.056,1.678,5.035,5.035,0,0,0,1.667-4.376,54.685,54.685,0,0,0-1.063-5.865c-.545-2.263-1.8-4.395-1.271-6.723-.168.348-.466,1.435-.826.7-.212-.434.3-1.164.481-1.525a9.331,9.331,0,0,1,2.336-2.968c.836-.715,1.662-1.448,2.521-2.134.687-.548,1.705-.747,2.339-1.281.5-.424.568-1.2.88-1.824A23.483,23.483,0,0,0,555,320.9a10.934,10.934,0,0,0,.562-2.6,10.331,10.331,0,0,1-2.043,4.513c-1.554,1.922-3.888,3.117-5.4,5.082a41.829,41.829,0,0,0-3.019,4c-.552.931-1.449,2.865-1.26,4.088a1.888,1.888,0,0,0,.053.236,1.72,1.72,0,0,1-.053-.236,13.958,13.958,0,0,1,.022-2.087,20.455,20.455,0,0,1,.124-2.438,14.877,14.877,0,0,0-.094-4.1c-.136-.851-.378-3.217-1.006-3.814-1.112-1.058-2.963,1.36-3.89,1.922a14.059,14.059,0,0,1-4.532,1.873,12.506,12.506,0,0,0-4.907,1.83,28.608,28.608,0,0,1-5.784,2.744,14.715,14.715,0,0,1-5.379,1.085,25.485,25.485,0,0,1-3.735-.37,2.553,2.553,0,0,1-.708-.1c.237.031.473.064.708.1.569.015,1.215-.069,1.7-.069,3.19,0,9.7-.711,8.643-5.314a9.525,9.525,0,0,0-1.4-3.033,8.814,8.814,0,0,0-3.723-2.927c-1.95-1-3.856-2.248-5.876-3.088a16.278,16.278,0,0,1-5.374-3.387,16.845,16.845,0,0,0-2.211-2.17,23.947,23.947,0,0,1-2.877-2.094c-.83-.746-1.78-1.358-2.559-2.152a19.544,19.544,0,0,0,2.768,1.765,126.924,126.924,0,0,0,12.7,8.084c.98.5,1.961,1.012,2.912,1.568.7.41,1.487.7,2.167,1.124a4.8,4.8,0,0,1,1.11,1.14,10.109,10.109,0,0,0,.87,1.092,6.352,6.352,0,0,1,1.476,2.028,9.14,9.14,0,0,1,.636,2.405c.038.308.1,2.627-.257,2.714a20.237,20.237,0,0,0,3.645-1.726,13.539,13.539,0,0,0,1.689-.891c.3-.2.8-.77,1.212-.7-.843-.151-1.205-1.183-1.965-1.47.711.129,1.382.682,2.13.831,2.422.484,4.424-.481,6.3-1.864-1.374.547-1.942-.036-3.015-.734a36.875,36.875,0,0,0-3.141-1.945c-1.041-.538-1.924-1.414-2.967-1.844-.777-.321-1.56-.534-2.347-.776-.885-.271-1.659-.644-2.526-.945a11.373,11.373,0,0,1-1.721-.977,4.624,4.624,0,0,0-1.036-.311c-.711-.2-1.47-.6-2.175-.863a24.113,24.113,0,0,1-2.854-1.3c-1.85-.982-3.591-2.152-5.357-3.274a15.014,15.014,0,0,0,2.152.894c1.5.659,2.9,1.57,4.429,2.17,1.812.712,3.665,1.314,5.49,1.992.806.3,1.641.443,2.434.783.841.362,1.627.843,2.48,1.179a11.633,11.633,0,0,1,2.913,1.46c1.228.956,2.56,1.857,3.839,2.777a5.412,5.412,0,0,0,2.723,1.218,3.821,3.821,0,0,0,2.5-.543,8.211,8.211,0,0,0,1.721-1.48,7.315,7.315,0,0,0,1.508-2.058,1.567,1.567,0,0,1-1.079.718c-.588-.026-.687-1.138-.778-1.58a27.2,27.2,0,0,0-2.484-7.7c-.462-.837-.888-1.706-1.389-2.52a17.967,17.967,0,0,0-.849-1.758c-.206-.255-.635-.3-.84-.509-.426-.443-1.407-2.992-.733-3.392-.476.283-.456,1.225-.616,1.7a5.725,5.725,0,0,1-2.647,2.735,10.676,10.676,0,0,1-5.393,1.349,13.449,13.449,0,0,1-4.2-.63c-.868-.271-1.807-.246-2.665-.443-1-.229-2.055-.442-3.043-.719-1.556-.435-3-1.4-4.592-1.789a9.759,9.759,0,0,1-4.732-2.7c-.947-1.054-2.345-1.573-3.263-2.663A25.9,25.9,0,0,0,500,296.768a37.929,37.929,0,0,0-3.945-2.818c3.67,1.631,6.915,4.161,10.164,6.495,1.132.813,2.11,1.515,2.84,2.008a29.408,29.408,0,0,0,8.045,3.451,64,64,0,0,0,8.674,2.209,9.108,9.108,0,0,0,4.715-.437,7.4,7.4,0,0,0,3.074-2.123,3.142,3.142,0,0,0,.657-2.571c-.067-.367-.445-.849-.825-.545-.666.533-.705,1.517-1.264,2.117a2.636,2.636,0,0,1-2.482,1.122c-.99-.193-1.663-1.029-2.585-1.38-1.443-.549-2.86-.916-4.335-1.337-2.251-.643-3.89-2.377-5.635-3.832-2.035-1.7-4.543-2.424-6.68-3.95-2.075-1.482-4.422-2.5-6.5-3.976a5.6,5.6,0,0,0-1.583-1.049,12.555,12.555,0,0,1,3.457,1.327,46.04,46.04,0,0,1,5.133,2.984,28.355,28.355,0,0,0,6.4,3.021,65.661,65.661,0,0,0,6.5,1.832c1.75.473,3.5,1.229,5.207.184,2.338-1.428,3.165-5.369,2.07-7.777a2.762,2.762,0,0,1-.2-1.923c.133-.46.352-1.3.877-1.449a10.188,10.188,0,0,0-2.9,1.762l.018.013a8.646,8.646,0,0,1-4.71,2.879,13.01,13.01,0,0,1-5.538.06,16.269,16.269,0,0,1-2.386-.443,39.128,39.128,0,0,0,5.19.023,17.123,17.123,0,0,0,4.5-1.163,3.942,3.942,0,0,0,.916-.427,3.374,3.374,0,0,1-1.719.246,24.869,24.869,0,0,1-4.4-.667c-1.082-.193-2.182-.2-3.273-.3a32.133,32.133,0,0,1-5.817-1.041,29.533,29.533,0,0,1-5.638-2.456,24.387,24.387,0,0,1-5.724-3.617,15.316,15.316,0,0,1-1.238-1.55,14.812,14.812,0,0,1,2.853,1.722c1.114.727,2.256,1.413,3.417,2.062a31.554,31.554,0,0,0,6.571,2.995,38.278,38.278,0,0,0,6.076,1.189c.927.126,1.854.255,2.779.4,1,.16,1.97.439,2.978.555a9.919,9.919,0,0,0,2.748-.073,4.741,4.741,0,0,0,3.1-1.781,3.222,3.222,0,0,0,.421-3.09c-.161-.654-.016-1.318.692-1.415a3.835,3.835,0,0,0-1.8,1.119,3.409,3.409,0,0,1-2.063.85,7.124,7.124,0,0,1-4.748-1.383,47.572,47.572,0,0,0-5.124-3.366c-1.777-.95-3.552-1.889-5.378-2.737a31.724,31.724,0,0,0-4.088-1.657,12.2,12.2,0,0,0-2.545-.937,21.072,21.072,0,0,1,5.053,1.346c1.471.492,2.911,1.067,4.327,1.7,2.062.921,4.171,2.121,6.21,3.282,1.1.624,2.131,1.213,3.154,1.759,1.5.8,3.609,1.321,5.15.333,1.1-.7.977-4.077,2.058-4.12a8.536,8.536,0,0,1-3.347-.9c2.066.027,4.884-1.091,5.067-3.463.056-.719-.664-1.937-.524-2.5a2.43,2.43,0,0,0-.184-1.5,3.606,3.606,0,0,0-.777-1.364c-1.8-1.556-4.569-2.106-6.771-2.856a12.076,12.076,0,0,0-2.248-.759q-.311-.01-.621-.011a2.576,2.576,0,0,1,.621.011,17.978,17.978,0,0,1,4.071.563c3.059.815,5.663,2.84,8.792,3.434a4.519,4.519,0,0,0,1.813.153,7.943,7.943,0,0,1,1.214-2.025c-.36.577-1.085,1.727-.323,2.283.455.332.865.756,1.3,1.121a4.04,4.04,0,0,1,1.432,2.2,3.081,3.081,0,0,1,0,.943,2.946,2.946,0,0,0,.458-1.59,6.022,6.022,0,0,1,.249-2.839,47.338,47.338,0,0,1,2.98-4.44c.9-1.26,1.742-2.451,2.213-3.184.129-.2.257-.4.384-.6,1.113-1.761,2.164-3.424,3.5-3.138a3.531,3.531,0,0,1,1.122.468,1.716,1.716,0,0,0-.868-1.022,22.149,22.149,0,0,1-3.579-2.635c-.531-.472-1.312-1.063-2.012-1.564a10.557,10.557,0,0,1,.932,1.284c1.53,2.512-.467,5.82-3.125,6.469a6.164,6.164,0,0,1-.01-.828c-.564,1.144-2.278,1.2-3.326,1.641-1.832.772-3.195,2.341-5.019,2.972-1.594.551-2.549-.564-4.014-.268-2.446.495-5.1-.449-7.6-.357a25.851,25.851,0,0,0-8.369,1.684,11.481,11.481,0,0,1,11.21,1.869c.7.612,1.821.574,2.321,1.423.632,1.076.6,3.434-.6,4.2-.526.338-1.076.14-1.656.217-.635.085-1.28.392-1.923.489-1.913.288-3.742-.242-5.646-.345.876.225,1.017.931,1.653,1.437.765.607,1.7.508,2.279,1.391.476.726.6,1.5-.227,1.891-1.1.519-1.768-.472-2.628-.875-.722-.338-1.555-.438-2.288-.768-.9-.406-1.8-.9-2.723-1.274a26.547,26.547,0,0,0-5.936-1.47c-2.285-.323-4.631-1.04-6.95-1.058a8.967,8.967,0,0,1,4.182,2.14A7.433,7.433,0,0,0,509,278.724a10.224,10.224,0,0,1,3.8,1.58c1.182.72,6.753,3.566,5.034,5.53-.507.579-2.671.566-3.366.67a7.628,7.628,0,0,1-4.312-.488c-2.332-.986-4.634-1.958-6.895-3.091a34.332,34.332,0,0,1-7.223-4.4,25.313,25.313,0,0,1-3.9-4.476c.024,1.243,1.453,3.073,2.276,3.935,1.124,1.177,2.51,2.065,3.639,3.236.943.978,1.3,2.172,2.391,2.971,2.85,2.084,6.077,4.325,9.448,5.327a20.34,20.34,0,0,1,3.606,1.2,5.143,5.143,0,0,0,2.689.841,7.432,7.432,0,0,1-3.726.2c1.707.446,3.038,1.612,4.724,1.95,1.637.328,3.328.228,4.968.487,1,.157,2.618,1.218,1.635,2.409-.785.951-2.755.073-3.72.022-4.948-.261-9.035-3.031-13.28-5.155-1.223-.612-2.344-1.275-3.6-1.826-.713-.313-1.45-.624-2.132-.973-1.1-.563-1.919-1.462-2.99-2.073.545.305,1.109,1.232,1.622,1.682.815.714,1.092,1.754,1.946,2.388,1.092.81,2.45,1.3,3.6,2.088a34.961,34.961,0,0,0,3.208,2.17c1.27.674,2.7,1.1,3.911,1.826,1.033.623,1.973,1.413,3.039,2.052a11.558,11.558,0,0,1,2.334,1.564,20.543,20.543,0,0,0,2.14,2.189,7.723,7.723,0,0,0,1.221.848c.528.253,1.188.251,1.713.566,1.036.622.926,1.49-.3,1.5-1.288.015-2.241-.918-3.521-1.092a23.228,23.228,0,0,1-3.239-.586c-2.1-.579-4.565-.922-6.416-2.021-1.754-1.042-3.3-2.382-4.959-3.573a59.928,59.928,0,0,0-5.02-3.389c-3.482-2-6.873-2.6-8.758-6.535.653,1.363.569,2.479,1.865,3.585a29.38,29.38,0,0,0,3.376,2.911,74.791,74.791,0,0,1,7.515,5.352,32.1,32.1,0,0,1,3.237,2.818c1,1.052,1.862,2.418,3.274,2.9,2.841.972,5.822,1.859,8.709,2.79,1.641.53,3.221,1.125,4.88,1.605,1.368.4,3.959,1.555,5.3.966a4.927,4.927,0,0,1-2.46,1.269c1.568.825,3.751.507,5.507.684,1.055.92,2.706,2.851.732,3.6s-3.3-.368-5.2-1.07a43.411,43.411,0,0,0-6.426-1.457,33.235,33.235,0,0,1-5.982-2,27.67,27.67,0,0,0-2.669-1.019c-1.013-.3-2.74-.5-3.439-1.155.83,1.375,2.528,2.284,3.819,3.125,1.876,1.223,3.547,2.61,5.644,3.355a36.373,36.373,0,0,1,6.151,2.84c.658.386,3.266.965,3.1,2.152-.123.881-1.329.679-1.854.382-.851-.482-1.233-1.486-2.069-2.045a9.177,9.177,0,0,0-2.74-1.044,29.98,29.98,0,0,1-5.8-2.382c-3.18-1.6-6.048-3.963-9.138-5.738-1.731-.995-3.49-2.128-5.135-3.307-.892-.639-1.909-1.244-2.744-1.942-.77-.644-1.33-1.508-2.075-2.171.681.663,1.082,1.905,1.727,2.687a33.608,33.608,0,0,0,3.746,4.174,43.928,43.928,0,0,0,4.071,3.428,15.8,15.8,0,0,1,2.112,1.483c.649.621,1.01,1.453,1.632,2.093.579.6,1.309,1.034,1.93,1.571,1.2,1.037,2.559,1.1,3.979,1.733a39.767,39.767,0,0,1,5.326,2.848c1.9,1.242,3.4,6.03.584,7.051-.807.292-1.777.25-2.621.482a12.077,12.077,0,0,1-3.5.416,33.433,33.433,0,0,1-8.425-.882,23.787,23.787,0,0,1,2.753,1.47c1.025.427,2.126.906,3.153,1.287,4.118,1.529,8.425,1.126,12.531-.212,4.019-1.309,7.657-3.75,11.888-4.17a3.567,3.567,0,0,1,3.207,1.283c.5.559,1.243,2.76.975,3.364.984,1.262-1.068,4.048-1.626,5.418a10.915,10.915,0,0,1-3.036,4.729,19.746,19.746,0,0,1-4.33,2.84A21.777,21.777,0,0,0,537.7,343.6c1.394-1.062,3.457-2.643,5.256-1.347,1.919,1.382,1.7,4.942,1.17,6.883a5.3,5.3,0,0,1-3.139,3.317c.663-.155,1.437-.289,1.695.194.31.579-1.072,1.347-1.571,1.492-3.529,1.025-6.774-1.727-9.747-3.131-2.627-1.241-5.232-2.709-7.859-3.914-2.476-1.136-4-2.927-6.071-4.619a21.95,21.95,0,0,0-3.593-2.385,9.942,9.942,0,0,0-5.323-1.068c.226.112.8.54,1.147.783-2.144-.138-4.243-1.235-6.336-1.758a36.368,36.368,0,0,0-3.937-.576c-1.555-.215-3.1-1.017-4.668-.515a34.474,34.474,0,0,0-6.783,3.434,7.244,7.244,0,0,1,3.837,0c-1.389-.563-3.6,1.045-4.642,1.809a6.471,6.471,0,0,0-1.566,1.642,20.188,20.188,0,0,0-.815,5.378,6.141,6.141,0,0,0,.478,1.971C485.051,349.464,485,346.694,486.242,345.073Z" transform="translate(-409.854 -206.396)" fill="#060608"/>
      <path id="Path_1303" data-name="Path 1303" d="M605.166,870.458c-1.123-1.96-.835-2.94-1.987-4.5-.812-1.1-1.058-2.6-2-3.558-.88-.894-2.069-1.468-2.994-2.265a5.28,5.28,0,0,0-1.276-.908,6.343,6.343,0,0,0-2.079-.29,7.71,7.71,0,0,1-2.48-.5,22.539,22.539,0,0,0-4.064-1.127,4.7,4.7,0,0,0-4.326,1.095,5.4,5.4,0,0,0-1.931,4.208c.288,3.17,1.1,5.764,2.709,7.378s2.536,2.306,3.055,2.306a1.622,1.622,0,0,1,1.441.519c.288.461.519,1.1,1.21,1.037a3.783,3.783,0,0,1,2.882.865,10.642,10.642,0,0,1,2.594,2.479c.807,1.153,1.729.807,1.729.807s.865.749,1.614.519a3.16,3.16,0,0,0,1.268-.807,5.306,5.306,0,0,0,3.343-1.844s.4.864.922.749.346-2.018.346-2.018A4.7,4.7,0,0,0,605.166,870.458Z" transform="translate(-480.667 -644.657)" fill="#060608"/>
      <path id="Path_1304" data-name="Path 1304" d="M391.533,327.13q-.563-.268-1.127-.534a4.086,4.086,0,0,0-1.14-.474l-.072-.006a2.107,2.107,0,0,0-1.182.472c.749-.471,1.371.655,1.568,1.195.025.069.6.117.677.129a6.88,6.88,0,0,0,1.077.1,1.272,1.272,0,0,0,.818-.177C392.549,327.45,391.79,327.252,391.533,327.13Z" transform="translate(-339.438 -258.021)" fill="#060608"/>
      <path id="Path_1305" data-name="Path 1305" d="M257.608,289.823l-.119-.021a6.174,6.174,0,0,0-.679-.068c-.532-.027-1.061,0-1.593,0a8.213,8.213,0,0,1-5.922-1.922,8.959,8.959,0,0,1-2.459-5.078,5,5,0,0,1,.138-2.557c.422-1,1.095-1.887,1.062-3.033a2.794,2.794,0,0,1-1.264,1.88,13.617,13.617,0,0,1-2.544,1.216c.755.3.832,1.033,1.085,2.214.3,1.387.915,2.634.758,4.1-.42,3.925-6.335,5.75-9.607,6.475a30.967,30.967,0,0,1-6.664.432c-1.723,0-3.44-.381-5.094-.434-2.067-.067-.911,1.726-1.54,3.027a4.22,4.22,0,0,1-2.56,2.158c-.923.121-1.335-.457-2.155-.542-.407-.042-.977.307-1.3.221-.508-.136-.47-.529-.837-.789-.623-.443-1.473-.3-2.013-.778a1.246,1.246,0,0,1-.473-.887c-.261.074-.54.146-.842.224a11.875,11.875,0,0,0-3.088,1.17.8.8,0,0,0,0,1.451,34.7,34.7,0,0,0,3.464.281,5.233,5.233,0,0,1,2.06,1.217s-.187,1.4-.187,2.2-.609,1.124-.656,1.779a1.513,1.513,0,0,0,.749,1.5,1.491,1.491,0,0,0,1.592-.281s.8,1.639,1.4,1.966a1.516,1.516,0,0,0,1.873-.8,13.572,13.572,0,0,0-.562-3.137,5.186,5.186,0,0,0,1.639-.749s.234,4.775.749,5.477,1.5.421,2.06.047.281-1.686.281-1.686a2.1,2.1,0,0,0,1.5-1.358c.422-1.17-.047-6.367-.047-6.367a3.2,3.2,0,0,0,2.294-1.451s1.311-.843,5.384-.655a51.052,51.052,0,0,0,12.5-.749c3.324-.8,4.728-1.639,5.758-2.481a10.072,10.072,0,0,1,1.934-1.185c.461-.228.933-.435,1.411-.625.684-.272,1.405-.52,2.094-.813.372-.158.748-.266,1.109-.4C258.194,290.057,257.741,289.849,257.608,289.823Z" transform="translate(-209.439 -222.373)" fill="#060608"/>
      <path id="Path_1306" data-name="Path 1306" d="M510.408,81.645c1.8,1.158,3.123,1.8,3.43,3.993.332,2.38.359,3.94,1.395,5.989,1.19,2.354.714,3.789.494,6.117-.185,1.96.172,3.879.172,5.838a17.068,17.068,0,0,1-1.676,7.082,12.674,12.674,0,0,1-4.565,5.584,6.919,6.919,0,0,1-3.845,1.058,12.948,12.948,0,0,1-6.251-1.833,6.108,6.108,0,0,1-1.352-1.185,5.081,5.081,0,0,0,1.416,1.831c.427.316.857.633,1.288.942.778.558,1.582,1.078,2.386,1.6.53.342,1.03.666,1.515,1a5.229,5.229,0,0,0,4.683,1.113c1.029-.276,3.141-1.11,3.773-2.29.228-.426.677-1.227,1.2-2.154.925-1.653,1.885-3.287,2.857-4.913a19.517,19.517,0,0,0,2.511-9.536q.1-3.393.319-6.781c.094-1.476-.237-3.663,1.171-4.585-1.327.46-1.745-.252-2.038-1.424-.079-.315-.863-2.9-.863-3.217s-2.276-5.963-2.276-5.963c-1.052-.855-1.966-1.423-2.356-2.762.267.917-1.4,1.453-1.969,1.435-.938-.028-1.694-.714-2.658-.714-1.553-.644-3.027-1.414-4.562-2.084,1.009.441.937.827.389,1.15a3.656,3.656,0,0,1,1.933.769C508.284,78.776,508.75,80.578,510.408,81.645Z" transform="translate(-419.66 -75.778)" fill="#060608"/>
      <path id="Path_1307" data-name="Path 1307" d="M583.456,860.7l-.08.066Z" transform="translate(-481.662 -647.191)" fill="#060608"/>
      <path id="Path_1308" data-name="Path 1308" d="M583.766,860.415l-.1.076Z" transform="translate(-481.875 -646.987)" fill="#060608"/>
      <path id="Path_1309" data-name="Path 1309" d="M551.179,709.159c.472,1.091-.77,1.666-1.549,2.167,4.858-.535,7.457,3.221,10.111,6.753,2.992,3.984,6.134,9.071,3.194,14.031a8.959,8.959,0,0,1-2.389,2.355,10.238,10.238,0,0,0-2.4,3.475c.572-1.062,2.656-1.259,3.826-1.134a1.87,1.87,0,0,1,1.81,2.154.193.193,0,0,0,.087.041,7.36,7.36,0,0,1,2.149-.586c-.66.332-1.345.645-2,1,.046.484.378.616.793.991a4.523,4.523,0,0,1,1.264,2.151c.456,2.208-1.148,1.85-2.559,2.477.581.431,2.055.92.82,1.877a1.888,1.888,0,0,1-.694.292,8.547,8.547,0,0,1,1.236.37,8.763,8.763,0,0,0,1.093.46,6.37,6.37,0,0,1,1.278.26c.254.119.4.348.688.453a4.539,4.539,0,0,0,1.792.033,6.634,6.634,0,0,1,3.11.238,5.955,5.955,0,0,1,1.833,1.323c.575.584,1,1.324,1.821,1.6-.542-.448-.652-1.61-.927-2.237a4.491,4.491,0,0,0-1.283-1.907,25.046,25.046,0,0,0-1.923-1.613c-.59-.336-1.245-.54-1.829-.885.681-.039,1.362.375,2.1.3-.466.045-1.018-2.181-1.111-2.475-.922-2.94-1.5-3.862-1.614-4.784a3.066,3.066,0,0,0-.461-1.672,10.275,10.275,0,0,1-.692-2.305,2.732,2.732,0,0,0-.747-1.514c-.66-.508-1.544-.193-2.294-.176a16.115,16.115,0,0,1,1.911-.626c-.335.123-1.738-6.436-1.81-7.022-.346-2.824-1.153-5.187-7.608-15.39,0,0,.334-.636.079-.892a2.145,2.145,0,0,1-.729-1.24c0-.367-.431-.58-.758-.576-.111,0-.222.007-.333.011-.918.036-1.834.106-2.748.2-.973.1-1.944.023-2.9.154a16.509,16.509,0,0,0-2.32.537C549.562,707.873,550.714,708.083,551.179,709.159Z" transform="translate(-456.269 -535.253)" fill="#060608"/>
      <path id="Path_1310" data-name="Path 1310" d="M582.892,860.938c-.064.055-.125.11-.181.165C582.769,861.045,582.83,860.991,582.892,860.938Z" transform="translate(-481.178 -647.367)" fill="#060608"/>
      <path id="Path_1311" data-name="Path 1311" d="M595.1,575.6a2.353,2.353,0,0,0-.287-.246C594.912,575.443,595.008,575.524,595.1,575.6Z" transform="translate(-489.991 -439.468)" fill="#060608"/>
      <path id="Path_1312" data-name="Path 1312" d="M596.9,581.011a8.037,8.037,0,0,1,.323,1.555,2.273,2.273,0,0,0,.168.7,5.109,5.109,0,0,0,.55.947,16.651,16.651,0,0,0,2.849,3,26.336,26.336,0,0,0,3.96,3.007,34.986,34.986,0,0,0,8.068,3.21,8.5,8.5,0,0,0,3.639-.2c.7-.137,1.4-.2,2.107-.325a13.866,13.866,0,0,1,2.132-.44,16.909,16.909,0,0,1-5.386-.546,32.005,32.005,0,0,1-4.914-1.947q-.565-.292-1.115-.612a37.342,37.342,0,0,1-6.426-4.748c-.863-.789-1.658-1.638-2.44-2.5a28.463,28.463,0,0,1-2.119-3.479,11.7,11.7,0,0,0-2.424-2.367,4.053,4.053,0,0,1,.912,1.446C597.167,578.8,596.6,579.949,596.9,581.011Z" transform="translate(-490.758 -440.126)" fill="#060608"/>
      <path id="Path_1313" data-name="Path 1313" d="M554.906,581.913a9.863,9.863,0,0,0-5.571-2.73,11.25,11.25,0,0,1-2.938-.84c-.467-.183-.95-.372-1.452-.524-.693-.21-1.422-.413-2.2-.582a13.8,13.8,0,0,1,3.383,1.731,24.472,24.472,0,0,1,2.736,2.078c1.349,1.05,2.83,1.706,3.7,3.275a9.686,9.686,0,0,0,1.6,2.261,4.144,4.144,0,0,1,1.2,2.22,11.468,11.468,0,0,0,.84-2.616,1.5,1.5,0,0,0-.086-1.034,1.749,1.749,0,0,1-.266-1.132A2.536,2.536,0,0,0,554.906,581.913Z" transform="translate(-452.08 -440.836)" fill="#060608"/>
      <path id="Path_1314" data-name="Path 1314" d="M546.9,597.105a6.311,6.311,0,0,0-.946,3.409c-.06,1.178-.171,2.323-.345,3.485a15.239,15.239,0,0,1-1.877,5.988A10.191,10.191,0,0,1,538.8,613.3a8.669,8.669,0,0,1,2.739.521,2.815,2.815,0,0,1,1.964,2.144A6.183,6.183,0,0,1,542.5,621.4q1.626-.28,3.267-.47c.638-.073,1.5.085,2.027-.367.6-.513.275-1.426.183-2.093a31.108,31.108,0,0,0-.8-4.663,5.64,5.64,0,0,1,.095-4.636,45.661,45.661,0,0,0,2.176-5.346c.47-2.016,3.275-4.124,2.358-6.312a16.021,16.021,0,0,0-5.132-6.266c-.705-.543-1.524-1.108-2.4-1.659C546.537,591.544,548.341,594.235,546.9,597.105Z" transform="translate(-449.214 -449.825)" fill="#060608"/>
    </g>
    <path id="Path_1315" data-name="Path 1315" d="M430.566,208.062a4.129,4.129,0,0,1-.943-2.493c-.043-.492.1-.986-.185-1.433-.408-.641-1.406-.725-1.894-1.378a9.214,9.214,0,0,0,.052,1.767c.15.38.767.672,1.033,1.059C429.228,206.458,429.858,207.215,430.566,208.062Z" transform="translate(-926.437 378.403)" fill="#060608"/>
    <path id="Path_1316" data-name="Path 1316" d="M678.186,340.544c-.523.842-1.707,1.485-2.153,2.434-.418.886.162,1.857.206,2.749a14.671,14.671,0,0,0,.338-2.567C676.668,342.465,677.536,341.646,678.186,340.544Z" transform="translate(-1107.237 278.096)" fill="#060608"/>
    <path id="Path_1317" data-name="Path 1317" d="M671.341,406.93a13.976,13.976,0,0,0,1.44-.589,4.42,4.42,0,0,0,1.4-1.8c.628-1.274-.07-2.226-.087-3.645-.264.485-.853,1.03-.881,1.548-.037.707.553,1.163.364,2a3.825,3.825,0,0,1-1.826,2.186c-.271.193-.59.334-.86.529A3.632,3.632,0,0,1,671.341,406.93Z" transform="translate(-1103.602 234.163)" fill="#060608"/>
    <path id="Path_1318" data-name="Path 1318" d="M687.634,407.558c.644-.292.783-1.028,1.206-1.508a4.9,4.9,0,0,1,2.415-1.133c-.793.544-.746,1.52-1.595,1.848C689.036,407.006,688.38,407.234,687.634,407.558Z" transform="translate(-1115.792 231.234)" fill="#060608"/>
    <path id="Path_1319" data-name="Path 1319" d="M398.94,358.162a8.2,8.2,0,0,0-1.417,5.227c.08,1.492.956,2.687,1.036,4.137a6.443,6.443,0,0,1-3.135-1.081C396.906,364.441,396.536,360.071,398.94,358.162Z" transform="translate(-903.065 265.271)" fill="#060608"/>
    <path id="Path_1320" data-name="Path 1320" d="M735.389,616.818c1.735-.2,3.633,1.37,4.307,2.821.307.66.268,1.164,1.072,1.31.945.172,1.9-.078,2.863.162a5.115,5.115,0,0,1-2.477-1.8c-.2-.34-.285-.917-.586-1.165a10.972,10.972,0,0,0-1.126-.314A10.8,10.8,0,0,0,735.389,616.818Z" transform="translate(-1150.558 76.984)" fill="#060608"/>
    <path id="Path_1321" data-name="Path 1321" d="M821.431,662.36a1.052,1.052,0,0,1-.618.047c-.669-.224.191-1.4.263-1.841.187-1.152-.618-2.1.87-2.631,1.161-.418,1.606.318,1.361,1.395a5.918,5.918,0,0,1-.7,1.679,3.329,3.329,0,0,1-1.147,1.338Z" transform="translate(-1212.561 47.125)" fill="#060608"/>
    <path id="Path_1322" data-name="Path 1322" d="M446.72,559.251c-3.725,2.506-5.142,5.532-5.9,9.922a8.67,8.67,0,0,0-1.416-2.366c1.652-.826,1.8-2.995,2.954-4.321A27.249,27.249,0,0,1,446.72,559.251Z" transform="translate(-935.081 118.88)" fill="#060608"/>
    <path id="Path_1323" data-name="Path 1323" d="M472.256,736.223c-.611.918-1.718,1.657-2.275,2.686-.513.948-.894,1.985-1.474,2.97a32.392,32.392,0,0,0-1.831,3.328c-.626,1.432-.966,3.511-1.953,4.747a5.65,5.65,0,0,1,.678-4.529c.691-1.107,1.553-2.078,2.234-3.211a31.313,31.313,0,0,1,2.418-3.222A15.967,15.967,0,0,1,472.256,736.223Z" transform="translate(-953.39 -9.954)" fill="#060608"/>
    <path id="Path_1324" data-name="Path 1324" d="M314.732,490.419c-3.526,1.037-9.154.63-13.328.634-7.1.007-11.421-2.407-17.423-5.561a24.214,24.214,0,0,1-9.665-8.393c-2.193-3.37-6.063-8.3-6.786-12.371a14.747,14.747,0,0,1,1.545,5.078c.012.816-.535,1.621-.395,2.466.227,1.371.3.815,1.022,2.037,2.018,3.438,5.669,6.877,8.562,9.151,5.657,4.446,14.059,6.7,21.3,7.749a31.493,31.493,0,0,0,8.373-.116C309.895,490.9,312.211,491.418,314.732,490.419Z" transform="translate(-809.96 187.692)" fill="#060608"/>
    <g id="Group_371" data-name="Group 371" transform="translate(-558.23 547.984)">
      <path id="Path_1325" data-name="Path 1325" d="M661.32,620.313a1.013,1.013,0,0,1-.857,1.064q.851.344,1.721.634c.835.277,3.054,1.231,3.929.833,1.417-.645-1.814-2.022-2.2-2.241-.724-.412-1.9-1.048-3.3-1.8A1.882,1.882,0,0,1,661.32,620.313Z" transform="translate(-537.782 -472.458)" fill="#060608"/>
      <path id="Path_1326" data-name="Path 1326" d="M697.611,617.288a2,2,0,0,0-1.243.557l-.055.053c-.619.592-1.273,1.113-1.946,1.644-.078.062-.159.12-.239.18.238-.061.463.01.648.371.132.257-.023.64.034.9.064.294.216.573.282.877a32.26,32.26,0,0,1,.814,5.146c.035.7,0,1.357.058,2.014a3.3,3.3,0,0,1-.79,2.442,8.843,8.843,0,0,1-1.04.786,8.165,8.165,0,0,0-1.029,1.3,3.858,3.858,0,0,1-2.13,1.216,11.546,11.546,0,0,1-4.129.27,8.237,8.237,0,0,0,.908.279,9.4,9.4,0,0,0,5.947-.552,9.767,9.767,0,0,0,2.576-1.638,3.581,3.581,0,0,0,1.1-2.757c-.042-1.456-.791-2.289-.874-4.536-.069-1.852-.076-3.709-.126-5.562C696.35,619.49,696.685,617.656,697.611,617.288Z" transform="translate(-556.987 -471.355)" fill="#060608"/>
      <path id="Path_1327" data-name="Path 1327" d="M726.424,617.117c.087-.018.179-.038.279-.064A.915.915,0,0,0,726.424,617.117Z" transform="translate(-585.801 -471.184)" fill="#060608"/>
      <path id="Path_1328" data-name="Path 1328" d="M674.713,704.261c-1.545.772-4.654,6.559-6.657,2.619.43-2.38,5.1-4.065,7.037-5.2q7.037-4.112,13.716-8.614a65.976,65.976,0,0,0,6.507-4.39c1.126-.967,5.284-4.852,4.648-6.3-1.711.049-2.811,2.952-3.853,4.142-3.324,3.8-8.009,6.684-12.249,9.429-2.609,1.689-5.273,3.9-8.208,5.121-2.863,1.191-7.821,4.454-8.444-.541-.208-1.665.167-4.036-.624-5.035a3.363,3.363,0,0,0-.266-1.562c.11.19-.047.835-.073,1.056a3.7,3.7,0,0,1-.712,1.767,4.238,4.238,0,0,0,.187-2.216,10.41,10.41,0,0,1-.224-1.714,1.82,1.82,0,0,1,.629-1.45,24.058,24.058,0,0,0,5.576-4.911c1.926-2.481,3.355-5.258,3.237-7.511.028.535-2.019,1.338-2.409,1.454-.283.084-.563.162-.842.23a11.381,11.381,0,0,1-2.159.331c-.228.012-.464.027-.7.042,2.7,1.37,2.123,4.517.106,6.736a16.482,16.482,0,0,1-4.407,3.412c-.5.262-1.193.451-1.347,1.1-.173.73.5,1.251.742,1.883.589,1.512.655,3.236-.764,4.288,1.054.017,1.606-.405,2.473.564a5.048,5.048,0,0,1,.955,2.816c.087,1.084-.112,2.2.045,3.274.166,1.131.785,2.187.738,3.337a19.634,19.634,0,0,0,.683,4.794,4.527,4.527,0,0,1-.217,2.53c-.319,1-.2,2.237-.879,3.134-2.417,3.175-6.127-1.785-7.379-3.552a20.287,20.287,0,0,1-2.387-4.7,10.1,10.1,0,0,0,1.115,4.1c1.581,2.747,5.326,6.533,6.825,6.991s3.62-1.04,4.328-2.5a6.881,6.881,0,0,0,0-4.827c-.866-2.993,0-4.273,2.171-6.2.884-.783,1.63-1.691,2.576-2.391C675.224,705.048,676.858,703.189,674.713,704.261Z" transform="translate(-535.398 -516.251)" fill="#060608"/>
      <path id="Path_1329" data-name="Path 1329" d="M625.029,699.765a1.643,1.643,0,0,1,1.176-.965c.339-.025.6.171.966.1.334-.064.532-.332.826-.423.713-.222,1.012.386,1.222.972a5.985,5.985,0,0,1,1.8-4.057c-.989-.177-3.107-.444-4.17.275-1.415.957-2.913,2.5-2.871,3.579a4.106,4.106,0,0,1-.167,1.581,5.38,5.38,0,0,0-.514.818c.235-.178.517-.326.739-.489A3.11,3.11,0,0,0,625.029,699.765Z" transform="translate(-510.724 -528.07)" fill="#060608"/>
      <path id="Path_1330" data-name="Path 1330" d="M598.03,593.9l0,0v0C598.038,593.916,598.039,593.915,598.03,593.9Z" transform="translate(-492.329 -454.33)" fill="#060608"/>
      <path id="Path_1331" data-name="Path 1331" d="M748.8,326.6a4.279,4.279,0,0,0-.252-1.7,10.2,10.2,0,0,1-.254,4.089c-.6,2.125-2.391,2.531-3.449,4.247-1.056-.009-.936-1.377-1.54-2.042-.748-.823-2.59-.741-2.692-2.035-1.39-.019-.333,2.105-2.464,1.69-3.811-.743-2.4-4.589-1.747-7.187.739-2.927-.221-5.5-3.209-6.264-1.918-.492-3.921-.534-5.811-1.144-2.473-.8-5.062-.957-7.51-1.934a26.525,26.525,0,0,1-3.926-2.091,44.076,44.076,0,0,1-7.38-5.6c-1.092-1.037-1.882-2.4-3.147-3.234-1.172-.776-2.089-.471-3.445-.635a3.489,3.489,0,0,1-2.907-2.122c-.645-1.225-.228-2.123-.027-3.21a6.877,6.877,0,0,0-.682,1.087,35.7,35.7,0,0,1-1.985,3.268,31.049,31.049,0,0,0,8.407,4.962,23.022,23.022,0,0,1,5.143,2.919c1.807,1.182,3.336,2.85,6.256,4.379a85.969,85.969,0,0,0,9.987,4.039c3.729,1.387,8.692,1.171,8.512,6.4a40.436,40.436,0,0,0,0,5.65c.219.927,1.013,1.1,2.072,2.03,1.158,1.013,1.881,1.537,1.162,3.07a29.534,29.534,0,0,1-2.564,3.531,24.943,24.943,0,0,1-1.924,2.143,14.99,14.99,0,0,0-1.256,1.9c1.674-1.905,3.3-3.737,4.785-5.8a11.848,11.848,0,0,1,2.093-2.857c.748-.556,1.611-.854,2.338-1.5,0,0,.706.177.839.441s0,.441-.441.486c-2.363.236-1.006,2.445-1.249,4.019-.31,2.01-1.948,3.819-2.852,5.588-2.022,3.958-5.434,7.737-8.3,11.1a25.664,25.664,0,0,1-6.092,5.133c-1.358.83-6.708,2.189-4.953,4.029a20.9,20.9,0,0,0,6.266-3.9,59.85,59.85,0,0,0,9.426-10.375,39.933,39.933,0,0,0,5.141-7.652c.773-1.736,1.406-4.128,2.994-5.337.779-.593,3.4-.751,3.635-1.805,0,0,1.324-.309,1.545-.706,0,0,1.015-.309,1.192-.883A53.089,53.089,0,0,0,748.8,326.6Z" transform="translate(-563.922 -238.503)" fill="#060608"/>
      <path id="Path_1332" data-name="Path 1332" d="M619.609,419.813a18.257,18.257,0,0,1,3.443,1.212,8.937,8.937,0,0,1,1.575,1.009c.474.385,1.355.867,1.982.58,1.272-.582.726-2.78,2.033-3.308.455-.184,1.1-.005,1.432-.456-.127.174-.846-.031-1-.118a4.421,4.421,0,0,1-1.048-1.116,4.021,4.021,0,0,0-.842-.963.771.771,0,0,0-.373-.112c-.547-.008-.9.711-1.285,1.035a2.98,2.98,0,0,1-1.951.7,5.863,5.863,0,0,1-1.93-.384c-.166-.058-.328-.114-.489-.168a14.694,14.694,0,0,0,2.026,1.3c.534.225,2.03.338,1.9,1.254-.124.893-1.541.349-2.042.136a14.908,14.908,0,0,0-2.145-.777c-.75-.2-1.562-.234-2.3-.478-.716-.236-1.419-.523-2.113-.806-.058-.024-.121-.047-.186-.069a9.114,9.114,0,0,0,2.455,1.278Z" transform="translate(-505.629 -325.213)" fill="#060608"/>
      <path id="Path_1333" data-name="Path 1333" d="M609.92,416.748c.741.244,1.553.281,2.3.478a14.909,14.909,0,0,1,2.145.777c.5.213,1.918.756,2.042-.136.128-.916-1.369-1.03-1.9-1.254a14.7,14.7,0,0,1-2.026-1.3,43.411,43.411,0,0,0-4.857-1.293c-.709-.156-1.379-.3-2.057-.48-.366-.1-.766-.2-1.188-.317a29.429,29.429,0,0,0,3.241,2.654c.065.023.128.045.186.069C608.5,416.226,609.2,416.512,609.92,416.748Z" transform="translate(-496.953 -322.794)" fill="#060608"/>
      <path id="Path_1334" data-name="Path 1334" d="M694.46,317.68c.024.244.1.376.209.431.345.177,1.015-.422,1.348-.656-.529-.38-1.083-.812-1.455-1.108C694.746,316.494,694.437,317.448,694.46,317.68Z" transform="translate(-562.53 -252.272)" fill="#060608"/>
      <path id="Path_1335" data-name="Path 1335" d="M596.187,383.173c.379.3.786.139,1.106.473,1.39,1.452-.164,3.281-1.7,3.5a11.741,11.741,0,0,1-4.628-.759,61.591,61.591,0,0,1-7.887-2.542c-.338-.144-.672-.3-1-.464a30.23,30.23,0,0,0,6.115,2.828,65.68,65.68,0,0,0,6.5,1.832c1.75.473,3.5,1.229,5.207.184,2.338-1.428,3.165-5.369,2.07-7.777a2.763,2.763,0,0,1-.2-1.923c.133-.46.352-1.3.877-1.449a10.189,10.189,0,0,0-2.9,1.762l.018.013a8.647,8.647,0,0,1-4.71,2.879c-.146.042-.292.077-.439.11a1.8,1.8,0,0,1,.975.421C595.865,382.507,595.943,382.983,596.187,383.173Z" transform="translate(-480.712 -296.484)" fill="#060608"/>
      <path id="Path_1336" data-name="Path 1336" d="M570.736,363.014c.813,1.848-.793,2.805-2.48,2.4-1.824-.435-3.632-.434-5.479-.691a17.708,17.708,0,0,1-4.555-1.014c-1.542-.643-3.111-1.332-4.648-1.983-1.207-.511-2.374-1.031-3.555-1.553q1.4.889,2.848,1.7a31.561,31.561,0,0,0,6.571,2.995,38.288,38.288,0,0,0,6.076,1.189c.928.126,1.855.255,2.779.4,1,.16,1.97.439,2.978.555a9.919,9.919,0,0,0,2.748-.073,4.741,4.741,0,0,0,3.1-1.781,3.221,3.221,0,0,0,.421-3.09c-.161-.654-.016-1.318.692-1.415a3.836,3.836,0,0,0-1.8,1.119,3.409,3.409,0,0,1-2.063.85,7.124,7.124,0,0,1-4.748-1.383l-.494-.353A6.8,6.8,0,0,1,570.736,363.014Z" transform="translate(-457.379 -284.18)" fill="#060608"/>
      <path id="Path_1337" data-name="Path 1337" d="M587.117,428.493c.588,1.414-1.046,1.671-2.05,1.469-1.5-.3-3.013-.726-4.495-1.125-.793-.213-1.627-.3-2.41-.555-.8-.261-1.608-.511-2.42-.737a27.5,27.5,0,0,1-5.808-2.152c-.8-.439-1.625-.821-2.42-1.267-.188-.106-.39-.206-.6-.3.766.549,1.437,1.024,1.972,1.386a29.41,29.41,0,0,0,8.045,3.451,63.994,63.994,0,0,0,8.674,2.209,9.107,9.107,0,0,0,4.714-.437,7.4,7.4,0,0,0,3.075-2.123,3.142,3.142,0,0,0,.657-2.571c-.067-.367-.445-.849-.824-.545-.666.533-.706,1.517-1.264,2.117a2.636,2.636,0,0,1-2.482,1.122c-.99-.193-1.663-1.029-2.585-1.38-1.353-.515-2.684-.87-4.061-1.26.419.227.87.418,1.287.613C585.2,426.908,586.614,427.283,587.117,428.493Z" transform="translate(-469.68 -330.512)" fill="#060608"/>
      <path id="Path_1338" data-name="Path 1338" d="M592.25,313.361c-.707,3.081-6.35,2.613-8.463,2,.312.175.484.5.727.708.292.245.68.375.981.589,1.309.932,1.72,2.948.016,3.707a2.157,2.157,0,0,1-1.677.041,26.737,26.737,0,0,1-3.183-1.637c-1.088-.586-2.328-1.015-3.468-1.555a25.662,25.662,0,0,0-4.275-1.655c-.731-.2-1.483-.316-2.2-.456-.2-.039-.412-.1-.628-.152.7.225,1.4.477,2.071.7,1.471.492,2.91,1.067,4.327,1.7,2.062.921,4.171,2.121,6.21,3.282,1.1.624,2.131,1.213,3.155,1.759,1.5.8,3.609,1.321,5.15.333,1.1-.7.977-4.077,2.058-4.12a8.535,8.535,0,0,1-3.347-.9c2.066.027,4.884-1.091,5.067-3.463.056-.719-.664-1.937-.524-2.5a2.428,2.428,0,0,0-.184-1.5,3.6,3.6,0,0,0-.777-1.364,8.2,8.2,0,0,0-1.968-1.221c.594,1.039.512,2.723.658,3.665A4.826,4.826,0,0,1,592.25,313.361Z" transform="translate(-471.984 -245.942)" fill="#060608"/>
      <path id="Path_1339" data-name="Path 1339" d="M480.905,547.091c-.085.069-.17.138-.256.209A3.268,3.268,0,0,0,480.905,547.091Z" transform="translate(-406.879 -420.252)" fill="#060608"/>
      <path id="Path_1340" data-name="Path 1340" d="M700.483,492.274a.654.654,0,0,0,.11-.3C700.561,492.075,700.523,492.175,700.483,492.274Z" transform="translate(-566.916 -380.124)" fill="#060608"/>
      <path id="Path_1341" data-name="Path 1341" d="M654.009,361.9a1.347,1.347,0,0,1,.15,0A1.454,1.454,0,0,0,654.009,361.9Z" transform="translate(-533.083 -285.431)" fill="#060608"/>
      <path id="Path_1342" data-name="Path 1342" d="M653.756,361.923c.023,0,.045-.007.069-.009C653.8,361.916,653.779,361.92,653.756,361.923Z" transform="translate(-532.899 -285.445)" fill="#060608"/>
      <path id="Path_1343" data-name="Path 1343" d="M573.633,575.587c-.818.223-1.887.049-2.712.184a5.466,5.466,0,0,0-.8.194,10.863,10.863,0,0,1,5.346,2.868,3.349,3.349,0,0,1,1.2,2.731.947.947,0,0,0,.105.612c.442.627.567,2.01-1.113,5.056a3.052,3.052,0,0,0,.917-.957,12.771,12.771,0,0,0,1.153-2.2,3.484,3.484,0,0,0,.334-1.9c-.144-.575-.042-1.175-.215-1.745a11.406,11.406,0,0,1-.539-1.528,1.081,1.081,0,0,0,.406.4,3.1,3.1,0,0,1-.027-1.216,2.518,2.518,0,0,0-.012-1.528,4.7,4.7,0,0,0-.943-1.269,3.646,3.646,0,0,0-.989-.969,4.3,4.3,0,0,0-1.488-.473A1.163,1.163,0,0,1,573.633,575.587Z" transform="translate(-472.017 -439.729)" fill="#060608"/>
      <path id="Path_1344" data-name="Path 1344" d="M606.43,153.762c-.223-.5-.443-.993-.652-1.5A7.834,7.834,0,0,0,606.43,153.762Z" transform="translate(-497.971 -132.82)" fill="#060608"/>
      <path id="Path_1345" data-name="Path 1345" d="M677.687,495.49c1.769.9,2.492,4.264,2.456,6.047a17.394,17.394,0,0,1-1.943,7.28c.563-1.1,1.86-2.6,3.259-2.034,1.365.555,1.8,2.845,1.982,4.1.416,2.79.468,6.872-1.059,9.385.812-1.336,1.815.775,1.76,1.463a3.481,3.481,0,0,1-1.391,2.338,10.131,10.131,0,0,1-4.608,2.211,3.164,3.164,0,0,0,2.284.181,15.894,15.894,0,0,0,2.8-1.454c.71-.456,1.434-.983,2.106-1.5a10.127,10.127,0,0,0,1.789-1.907,4.2,4.2,0,0,0,.925-2.439,2.584,2.584,0,0,0-.812-1.483c-.128-.142-1-.773-.882-1-.019.034-.038.069-.059.1a6.422,6.422,0,0,1-2.056,1.678,5.036,5.036,0,0,0,1.667-4.376,54.657,54.657,0,0,0-1.063-5.865c-.545-2.263-1.8-4.395-1.271-6.723-.168.348-.466,1.435-.826.7-.212-.434.3-1.164.481-1.525a9.332,9.332,0,0,1,2.336-2.968c.836-.715,1.662-1.448,2.521-2.134.687-.548,1.7-.747,2.339-1.281.5-.424.568-1.2.88-1.824a23.5,23.5,0,0,0,1.507-2.708,10.941,10.941,0,0,0,.562-2.6,10.332,10.332,0,0,1-2.043,4.513c-1.554,1.922-3.888,3.117-5.4,5.082a41.866,41.866,0,0,0-3.019,4c-.552.931-1.449,2.865-1.26,4.088a1.888,1.888,0,0,0,.053.236,1.711,1.711,0,0,1-.053-.236,13.949,13.949,0,0,1,.022-2.087,20.444,20.444,0,0,1,.124-2.438,14.874,14.874,0,0,0-.094-4.1c-.136-.851-.378-3.217-1.006-3.814-1.112-1.058-2.963,1.36-3.89,1.922a16.516,16.516,0,0,1-2.773,1.371C675.268,495.526,676.459,494.864,677.687,495.49Z" transform="translate(-547.663 -376.618)" fill="#060608"/>
      <path id="Path_1346" data-name="Path 1346" d="M657.246,267.268a14.73,14.73,0,0,1-3.174,3.039c-.812.634-1.814,2.587-2.905,2.486-.437-.888.743-2.056,1.009-2.827-.529,1.244-1.8,1.356-2.813,2.11-1.156.862-1.664,1.7-3.128,2.13a3.073,3.073,0,0,1-2.594-.341,12.017,12.017,0,0,0-4.062-.814,16.908,16.908,0,0,0-2.048-.089c3.02.83,5.6,2.82,8.7,3.407a4.52,4.52,0,0,0,1.813.153,7.941,7.941,0,0,1,1.214-2.025c-.36.577-1.085,1.727-.323,2.283.455.332.865.756,1.3,1.121a4.039,4.039,0,0,1,1.432,2.2,3.08,3.08,0,0,1,0,.943,2.946,2.946,0,0,0,.458-1.59,6.024,6.024,0,0,1,.249-2.839,47.336,47.336,0,0,1,2.98-4.44c.9-1.26,1.742-2.451,2.213-3.184.129-.2.257-.4.384-.6,1.113-1.761,2.164-3.424,3.5-3.138a3.532,3.532,0,0,1,1.122.468,1.716,1.716,0,0,0-.868-1.022,20.55,20.55,0,0,1-3.1-2.22C659.189,264,658.039,266.12,657.246,267.268Z" transform="translate(-521.087 -213.057)" fill="#060608"/>
      <path id="Path_1347" data-name="Path 1347" d="M702.042,552.147a1.724,1.724,0,0,0,.053.236A1.877,1.877,0,0,1,702.042,552.147Z" transform="translate(-568.051 -423.933)" fill="#060608"/>
      <path id="Path_1348" data-name="Path 1348" d="M616.689,494.789c.721.531,2.5,1.859,1.606,2.817a8.942,8.942,0,0,1-1.4.807c-.662.386-1.049.419-1.121-.492a3.744,3.744,0,0,0-.291-1.763,11.453,11.453,0,0,0-1.148-1.825,10.232,10.232,0,0,0-3.044-2.841,24.047,24.047,0,0,0-4.015-1.463c.437.235.872.475,1.3.725.7.41,1.487.7,2.167,1.124a4.8,4.8,0,0,1,1.11,1.14,10.089,10.089,0,0,0,.87,1.092,6.355,6.355,0,0,1,1.476,2.028,9.138,9.138,0,0,1,.636,2.405c.038.308.1,2.626-.257,2.714a20.235,20.235,0,0,0,3.645-1.726,13.53,13.53,0,0,0,1.689-.891c.3-.2.8-.77,1.212-.7-.843-.151-1.2-1.183-1.965-1.47.711.129,1.382.682,2.13.831,2.422.484,4.424-.482,6.3-1.864-1.374.547-1.942-.036-3.015-.734-.3-.193-.591-.388-.886-.582C624.663,496.938,617.725,495.278,616.689,494.789Z" transform="translate(-499.058 -378.71)" fill="#060608"/>
      <path id="Path_1349" data-name="Path 1349" d="M618.467,438.341a12.393,12.393,0,0,0,2.786-.929,6.27,6.27,0,0,1-2.872,2.144c1.843-.353,3.785-1.262,5.621-.4,3.293,1.55,4.044,10.779-.921,9.565a12.579,12.579,0,0,1-2.149-1.023c-.626-.283-1.322-.417-1.979-.711a36.777,36.777,0,0,0-4.786-2.168c-1.555-.443-3.118-.824-4.694-1.2-1.176-.282-2.408-.527-3.61-.721.044.018.088.038.133.056,1.813.712,3.665,1.314,5.49,1.993.806.3,1.641.443,2.434.783.841.361,1.627.843,2.48,1.179a11.634,11.634,0,0,1,2.913,1.46c1.228.956,2.56,1.857,3.839,2.777a5.412,5.412,0,0,0,2.723,1.218,3.821,3.821,0,0,0,2.5-.543,8.211,8.211,0,0,0,1.721-1.48,7.318,7.318,0,0,0,1.508-2.058,1.568,1.568,0,0,1-1.079.718c-.588-.026-.687-1.138-.778-1.58a27.193,27.193,0,0,0-2.484-7.7c-.462-.837-.888-1.706-1.389-2.52a17.974,17.974,0,0,0-.849-1.758c-.206-.255-.635-.3-.84-.509-.427-.443-1.407-2.992-.733-3.393-.476.283-.456,1.225-.616,1.7a5.725,5.725,0,0,1-2.647,2.735,10.677,10.677,0,0,1-5.393,1.349,13.982,13.982,0,0,1-2.536-.217,20.338,20.338,0,0,0,3.083.8A9.97,9.97,0,0,0,618.467,438.341Z" transform="translate(-498.034 -336.133)" fill="#060608"/>
      <path id="Path_1350" data-name="Path 1350" d="M592.865,539.552c-.235-.034-.471-.068-.708-.1A2.557,2.557,0,0,0,592.865,539.552Z" transform="translate(-488.055 -414.692)" fill="#060608"/>
      <path id="Path_1351" data-name="Path 1351" d="M619.95,298.774q.311,0,.621.011A2.576,2.576,0,0,0,619.95,298.774Z" transform="translate(-508.289 -239.469)" fill="#060608"/>
      <path id="Path_1352" data-name="Path 1352" d="M535.181,212.42a9.814,9.814,0,0,0,4.536-3.934c-.439.765-2.98,1.434-3.779,1.39-.056-.82.717-4.011,1.658-4.177.07-1.463-.04-2.067,1.08-3.044a5.387,5.387,0,0,1,3.116-1.4,5.065,5.065,0,0,0-3.4.432c-.424.26-2.968,2.564-2.969,1.108-.091.158-.385.53-.381.707a7,7,0,0,1-.748,3.669,7.752,7.752,0,0,0-.557,1.282,5.988,5.988,0,0,1-1.8,2.969c-.979.653-2.429,1.78-4.436,3.341l-1.42,1.1c-1.216.943-2.147,1.794-3.047,2.618-.345.316-.684.625-1.029.931a67.585,67.585,0,0,1,6.95-4.162C531.05,214.19,533.033,213.277,535.181,212.42Z" transform="translate(-436.983 -168.393)" fill="#060608"/>
      <path id="Path_1353" data-name="Path 1353" d="M380.8,313.922c-.585-.032-1.18-.017-1.766-.054,1.017.626,2.149.944,3.194,1.511.819.445,1.725.49,2.553.891.883.428,1.691.964,2.61,1.311a2.359,2.359,0,0,1,1.492,3.385,6.917,6.917,0,0,0,.643-1.069,3.352,3.352,0,0,0,.117-1.4,4.876,4.876,0,0,0-1.62-2.721,12.77,12.77,0,0,0-2.715-2.224,19.034,19.034,0,0,0-2.165-1.13,1.037,1.037,0,0,1,.126.528C383.241,314.34,381.662,313.97,380.8,313.922Z" transform="translate(-332.904 -249.415)" fill="#060608"/>
      <path id="Path_1354" data-name="Path 1354" d="M491.267,250.187c-.124,0-.247,0-.369-.009A1.411,1.411,0,0,0,491.267,250.187Z" transform="translate(-414.34 -204.102)" fill="#060608"/>
      <path id="Path_1355" data-name="Path 1355" d="M605.166,870.458c-1.123-1.96-.835-2.94-1.987-4.5-.812-1.1-1.058-2.6-2-3.558-.88-.894-2.069-1.468-2.994-2.265a5.28,5.28,0,0,0-1.276-.908c-.064-.026-.13-.049-.2-.07a12.621,12.621,0,0,1,1.6,2.359c.841,1.138,2.025,2.048,2.6,3.368.356.811.47,2.082-.534,2.255-.894.154-1.452-.509-2.143-1.017a7.072,7.072,0,0,0-1.315-.859c-.674-.292-1.424-.363-2.107-.624a10.924,10.924,0,0,1-2.333-1.3c-.851-.6-1.366-1.59-2.173-2.218-.987-.767-2.482-1.18-2.864-2.545-.263-.939.242-1.174.956-1.246l-.113-.02a4.7,4.7,0,0,0-4.326,1.095,5.4,5.4,0,0,0-1.931,4.208c.288,3.17,1.1,5.764,2.709,7.378s2.536,2.306,3.055,2.306a1.622,1.622,0,0,1,1.441.519c.288.461.519,1.1,1.21,1.037a3.783,3.783,0,0,1,2.882.865,10.642,10.642,0,0,1,2.594,2.479c.807,1.153,1.729.807,1.729.807s.865.749,1.614.519a3.16,3.16,0,0,0,1.268-.807,5.306,5.306,0,0,0,3.343-1.844s.4.864.922.749.346-2.018.346-2.018A4.7,4.7,0,0,0,605.166,870.458Z" transform="translate(-480.668 -646.019)" fill="#060608"/>
      <path id="Path_1356" data-name="Path 1356" d="M391.533,327.13q-.563-.268-1.127-.534a4.086,4.086,0,0,0-1.14-.474l-.072-.006a2.107,2.107,0,0,0-1.182.472c.749-.471,1.371.655,1.568,1.195.025.069.6.117.677.129a6.88,6.88,0,0,0,1.077.1,1.272,1.272,0,0,0,.818-.177C392.549,327.45,391.79,327.252,391.533,327.13Z" transform="translate(-339.44 -259.384)" fill="#060608"/>
      <path id="Path_1357" data-name="Path 1357" d="M257.611,307.234l-.119-.021a6.168,6.168,0,0,0-.679-.068c-.531-.027-1.061,0-1.593,0a8.213,8.213,0,0,1-5.922-1.921,8.693,8.693,0,0,1-2.279-4.162,10.374,10.374,0,0,0,.961,3.79c.787,1.813,1.642,3.376-.3,4.669a14.885,14.885,0,0,1-6.789,2.524,41.548,41.548,0,0,1-5.987.493,48.044,48.044,0,0,1-6.83-.126,4.761,4.761,0,0,0-2.247-.16c-1,.4-.595.921-.846,1.733a4.672,4.672,0,0,1-1.477,1.786,7.427,7.427,0,0,1-2.244,1.072,3.542,3.542,0,0,1-2.8.191c-.343-.193-.576-.521-.959-.664-.524-.2-1.1-.064-1.6-.35-.99-.561-.467-1.3-1.855-1.315-1.581-.02-3.227.365-4.4-.242a.76.76,0,0,0,.248,1.231,34.713,34.713,0,0,0,3.464.281,5.232,5.232,0,0,1,2.06,1.217s-.187,1.4-.187,2.2-.609,1.124-.656,1.779a1.513,1.513,0,0,0,.749,1.5,1.491,1.491,0,0,0,1.592-.281s.8,1.639,1.4,1.966a1.516,1.516,0,0,0,1.872-.8,13.571,13.571,0,0,0-.562-3.137,5.187,5.187,0,0,0,1.639-.749s.234,4.775.749,5.477,1.5.421,2.06.047.281-1.686.281-1.686a2.1,2.1,0,0,0,1.5-1.358c.422-1.17-.047-6.367-.047-6.367a3.2,3.2,0,0,0,2.294-1.451s1.311-.843,5.384-.655a51.054,51.054,0,0,0,12.5-.749c3.324-.8,4.728-1.639,5.758-2.481a10.07,10.07,0,0,1,1.934-1.185c.461-.228.933-.435,1.411-.625.684-.272,1.405-.52,2.094-.813.372-.158.748-.266,1.11-.4C258.2,307.468,257.745,307.26,257.611,307.234Z" transform="translate(-209.444 -241.147)" fill="#060608"/>
      <path id="Path_1358" data-name="Path 1358" d="M480.36,467.14c.671-.318,1.277-.7,1.976-.968a15.313,15.313,0,0,1,2.279-.833,19.181,19.181,0,0,1,6.066-.617,24.985,24.985,0,0,1,3.852.807l-.63-.391c-1.373-.851-2.757-1.694-4.066-2.642a9.982,9.982,0,0,1-1.523-1.238c-1.562-1.7-2.792-3.637-4.338-5.365a9.808,9.808,0,0,1-1.843-2.538,17.281,17.281,0,0,0-1.416-2.883,12.421,12.421,0,0,0-.764-1c.233.592.522,1.158.706,1.781.332,1.126.7,2.319,1.13,3.394.533,1.346,1.951,1.748,2.184,3.28a7.5,7.5,0,0,0,1.7,3.645,5.019,5.019,0,0,0,2.728,1.615,15.257,15.257,0,0,1-3.4.65,5.024,5.024,0,0,0-2.613,1.1,18.163,18.163,0,0,1-3.316,1.917C479.456,467.192,479.756,467.426,480.36,467.14Z" transform="translate(-405.726 -349.188)" fill="#060608"/>
      <path id="Path_1359" data-name="Path 1359" d="M505.055,240.4a14.3,14.3,0,0,0-1.559.143,1.142,1.142,0,0,1-.254-.034c1.058.6,3.06,1.871,3.728,2.3.565-.3,2.045-1.09,3.242-1.626a8.622,8.622,0,0,1-2.086-1.089,1.594,1.594,0,0,0,.079.246C506.943,240.942,506.331,240.555,505.055,240.4Z" transform="translate(-423.326 -196.759)" fill="#060608"/>
      <path id="Path_1360" data-name="Path 1360" d="M523.893,83.353a12.37,12.37,0,0,1,1.838,4.534c.45,1.792.412,3.566.733,5.347.292,1.617,1.614,2.994,1.494,4.7-.067.945-.642,1.76-.755,2.693-.234,1.927.426,3.734.483,5.653.116,3.89-1.749,7.781-3.747,11.029a26.144,26.144,0,0,1-2.3,3.728c-2.922,3.259-6.711,1.689-10.117.305.487.327.978.647,1.471.965.53.342,1.03.666,1.515,1a5.229,5.229,0,0,0,4.683,1.113c1.029-.276,3.141-1.11,3.773-2.29.228-.426.677-1.227,1.2-2.154.925-1.653,1.885-3.287,2.857-4.913a19.518,19.518,0,0,0,2.511-9.536q.1-3.393.319-6.781c.094-1.476-.237-3.663,1.171-4.585-1.327.46-1.745-.252-2.038-1.424-.079-.315-.863-2.9-.863-3.217s-2.276-5.963-2.276-5.963c-1.052-.855-1.966-1.423-2.356-2.762.265.91-1.368,1.444-1.954,1.435a3.1,3.1,0,0,0,.683.424C523.025,82.979,523.271,82.615,523.893,83.353Z" transform="translate(-429.35 -80.787)" fill="#060608"/>
      <path id="Path_1361" data-name="Path 1361" d="M562.417,710.081c1.754.427,2.512.437,3.871,1.823a34.1,34.1,0,0,1,3.692,5c2.6,3.805,4.986,7.17,4.744,12.121a6.913,6.913,0,0,1-.614,2.9c-.684,1.277-1.942,2.088-2.628,3.293,2.159-2.023,6.674.371,5.054,3.051,1.964.579,2.171,2.37,2.684,4.217.864,3.116-1.341,2.947-3.779,2.947a15.534,15.534,0,0,1,1.7.591,5.13,5.13,0,0,1,2.23,1.1,1.6,1.6,0,0,1,.163,1.646,6.407,6.407,0,0,1,3.015.244,5.955,5.955,0,0,1,1.833,1.323c.575.584,1,1.324,1.821,1.6-.542-.448-.652-1.61-.927-2.237a4.491,4.491,0,0,0-1.283-1.907,25.035,25.035,0,0,0-1.923-1.613c-.59-.336-1.245-.54-1.829-.885.681-.039,1.362.375,2.1.3-.466.045-1.018-2.181-1.111-2.475-.922-2.94-1.5-3.862-1.614-4.784a3.066,3.066,0,0,0-.461-1.672,10.272,10.272,0,0,1-.692-2.305,2.732,2.732,0,0,0-.747-1.514c-.66-.508-1.544-.193-2.294-.176a16.116,16.116,0,0,1,1.911-.626c-.335.123-1.738-6.436-1.81-7.022-.346-2.824-1.153-5.187-7.608-15.39,0,0,.334-.636.079-.892a2.145,2.145,0,0,1-.729-1.24c0-.367-.431-.58-.758-.576-.111,0-.223.007-.333.011-.918.036-1.834.106-2.748.2-.532.053-1.063.055-1.591.068a7.288,7.288,0,0,1,2.91,1.815A23.356,23.356,0,0,1,562.417,710.081Z" transform="translate(-465.974 -536.615)" fill="#060608"/>
      <path id="Path_1362" data-name="Path 1362" d="M582.892,860.938c-.064.055-.125.11-.181.165C582.769,861.045,582.83,860.991,582.892,860.938Z" transform="translate(-481.179 -648.73)" fill="#060608"/>
      <path id="Path_1363" data-name="Path 1363" d="M583.766,860.415l-.1.076Z" transform="translate(-481.876 -648.349)" fill="#060608"/>
      <path id="Path_1364" data-name="Path 1364" d="M583.456,860.7l-.08.066Z" transform="translate(-481.663 -648.554)" fill="#060608"/>
      <path id="Path_1365" data-name="Path 1365" d="M595.1,575.6a2.353,2.353,0,0,0-.287-.246C594.912,575.443,595.008,575.524,595.1,575.6Z" transform="translate(-489.992 -440.831)" fill="#060608"/>
      <path id="Path_1366" data-name="Path 1366" d="M648.2,628.367c.7-.137,1.4-.2,2.107-.325a13.864,13.864,0,0,1,2.131-.44,16.911,16.911,0,0,1-5.386-.546,32.008,32.008,0,0,1-4.914-1.947c-.358-.185-.71-.379-1.059-.581a1.562,1.562,0,0,1,.475.7.99.99,0,0,1-.461,1.117,2.4,2.4,0,0,1-1.617.493,43.464,43.464,0,0,0,5.084,1.737A8.5,8.5,0,0,0,648.2,628.367Z" transform="translate(-522.507 -476.626)" fill="#060608"/>
      <path id="Path_1367" data-name="Path 1367" d="M572.619,593.993a9.684,9.684,0,0,0,1.6,2.261,4.144,4.144,0,0,1,1.2,2.22,11.464,11.464,0,0,0,.84-2.616,1.5,1.5,0,0,0-.086-1.034,1.749,1.749,0,0,1-.266-1.132,2.536,2.536,0,0,0-.949-2.107,8.261,8.261,0,0,0-1.268-1.062,1.165,1.165,0,0,1,.35.866c-.024.467-.261.659-.7.8-.81.266-1.939-.259-2.754-.429-.1-.021-.2-.044-.3-.069A6.9,6.9,0,0,1,572.619,593.993Z" transform="translate(-472.137 -451.869)" fill="#060608"/>
      <path id="Path_1368" data-name="Path 1368" d="M559.221,605.047c-.228.464-.609.7-.773,1.213-.283.892-.422,1.872-.783,2.8-1.007,2.583-1.536,5.478-3.2,7.762-.594.816-1.493.975-2.369,1.378,1.848-.247,2.765.733,3.145,2.393a7.367,7.367,0,0,1-.361,4.812,4.593,4.593,0,0,1-1.74,1.924q1.147-.178,2.3-.312c.638-.073,1.5.085,2.027-.367.6-.513.275-1.426.183-2.093a31.116,31.116,0,0,0-.8-4.663,5.64,5.64,0,0,1,.095-4.636,45.655,45.655,0,0,0,2.176-5.346c.47-2.016,3.275-4.124,2.358-6.312a15.379,15.379,0,0,0-4.368-5.65C558.669,599.749,560.238,602.975,559.221,605.047Z" transform="translate(-458.892 -457.276)" fill="#060608"/>
    </g>
  </g>
</svg>
